<?xml version="1.0" encoding="UTF-8" standalone="no"?>
<!-- Created with Inkscape (http://www.inkscape.org/) -->

<svg
        xmlns:inkscape="http://www.inkscape.org/namespaces/inkscape"
        xmlns:sodipodi="http://sodipodi.sourceforge.net/DTD/sodipodi-0.dtd"
        version="1.1"
        id="svg1"
        xml:space="preserve"
        inkscape:version="1.4.2 (ebf0e94, 2025-05-08)"
        sodipodi:docname="appicon.svg"
        width="287mm"
        height="287mm"
        viewBox="0 0 287 287"
        inkscape:export-filename="appicon.png"
        inkscape:export-xdpi="45.312893"
        inkscape:export-ydpi="45.312893"
        xmlns="http://www.w3.org/2000/svg"><sodipodi:namedview
     id="namedview1"
     pagecolor="#ffffff"
     bordercolor="#000000"
     borderopacity="0.24705882"
     inkscape:showpageshadow="2"
     inkscape:pageopacity="0.0"
     inkscape:pagecheckerboard="0"
     inkscape:deskcolor="#d1d1d1"
     inkscape:document-units="mm"
     inkscape:zoom="0.5"
     inkscape:cx="575"
     inkscape:cy="419"
     inkscape:window-width="1920"
     inkscape:window-height="1016"
     inkscape:window-x="1305"
     inkscape:window-y="27"
     inkscape:window-maximized="1"
     inkscape:current-layer="layer1" />
    <defs
            id="defs1"/>
    <g
            inkscape:label="Layer 1"
            inkscape:groupmode="layer"
            id="layer1"
            transform="translate(-116.5044,50.39626)"><g
       id="g34"
       style="clip-rule:evenodd;fill-rule:evenodd;image-rendering:optimizeQuality;shape-rendering:geometricPrecision;text-rendering:geometricPrecision"
       transform="matrix(0.26425978,0,0,0.26457465,116.5044,-50.39626)"><g
         id="g2"
         transform="translate(-83.437486,-80.475041)"><path
           style="opacity:1"
           fill="#92b7fa"
           d="m 967.5,82.5 c 5.266,-0.3112 10.266,0.3554 15,2 -5.194,-0.2407 -10.194,-0.9074 -15,-2 z"
           id="path2" /></g><g
            id="g3"
            transform="matrix(1.0000005,0,0,0.99334499,-83.437526,-79.939479)"><path
           style="opacity:1"
           fill="#0164f9"
           d="m 967.5,82.5 c 4.806,1.0926 9.806,1.7593 15,2 82.1,11.6291 139.26,55.629 171.5,132 5.6,15.948 9.6,32.281 12,49 1.43,9.955 2.26,19.955 2.5,30 -0.82,-3.141 -1.32,-6.475 -1.5,-10 -0.17,3.167 -0.33,6.333 -0.5,9.5 0.66,216.329 1.32,432.496 2,648.5 -0.17,48.347 -13.01,93.01 -38.5,134 -32.29,47.08 -76.46,76.58 -132.5,88.5 -15.014,2.22 -30.014,4.22 -45,6 -216,0.67 -432,0.67 -648,0 -116.722,-6.39 -188.555,-66.22 -215.5,-179.5 -1.1212,-10.013 -2.2878,-20.013 -3.5,-30 0.662,-1.804 0.9954,-3.804 1,-6 -0.6511,-9.324 -3.6485,-555.345 -2.5,-665 2.1795,-61.502 25.346,-113.336 69.5,-155.5 26.572,-22.787 56.905,-38.4536 91,-47 16.215,-3.2089 32.548,-5.5422 49,-7 111.99,-1.1467 223.99,-1.6467 336,-1.5 105.667,0.1667 211.333,0.3333 317,0.5 6.976,0.8918 13.976,1.3918 21,1.5 z"
           id="path3"
           sodipodi:nodetypes="cccccccccccccccccccccc" /></g><g
            id="g4"
            transform="translate(-83.437486,-80.475041)"><path
           style="opacity:1"
           fill="#f92325"
           d="m 365.5,335 c 8.834,49.501 17.667,99.001 26.5,148.5 0.667,4.333 0.667,8.667 0,13 -3.168,4.033 -7.001,4.867 -11.5,2.5 -35.45032,-41.67197 -69.40893,-84.5787 -104,-127 -91.15179,-15.10222 -117.56194,-123.99987 -40,-178 78.26722,-44.55492 192.67341,24.50867 129,141 z"
           id="path4"
           sodipodi:nodetypes="ccccccc" /></g><g
            id="g5"
            transform="translate(-83.437486,-80.475041)"><path
           style="opacity:1"
           fill="#f9f8f9"
           d="m 797.5,210.5 c 76.001,-0.167 152.001,0 228,0.5 46.84,7.842 75.01,35.009 84.5,81.5 0.67,38.667 0.67,77.333 0,116 -9.13,47.127 -37.29,74.627 -84.5,82.5 -59,0.333 -118,0.667 -177,1 -2.946,0.806 -5.612,2.139 -8,4 -25.378,21.046 -51.044,41.713 -77,62 -11.941,3.863 -18.274,-0.471 -19,-13 3.733,-22.085 6.567,-44.251 8.5,-66.5 -24.04,-15.728 -39.04,-37.728 -45,-66 -1.602,-37.978 -1.936,-75.978 -1,-114 9.684,-50.519 39.851,-79.852 90.5,-88 z"
           id="path5" /></g><g
            id="g6"
            transform="translate(-83.437486,-80.475041)"><path
           style="opacity:1"
           fill="#f91a1d"
           d="m 1032.5,296.5 c -82,1.333 -164,1.333 -246,0 82,-1.333 164,-1.333 246,0 z"
           id="path6" /></g><g
            id="g7"
            transform="translate(-83.437486,-80.475041)"><path
           style="opacity:1"
           fill="#f92525"
           d="m 786.5,296.5 c 82.19328,-0.21324 164,-0.40652 246,0 9.92,4.517 13.42,12.183 10.5,23 -2.23,5.231 -6.06,8.731 -11.5,10.5 -81.667,0.667 -163.333,0.667 -245,0 -11.699,-6.431 -14.533,-15.598 -8.5,-27.5 2.177,-3.023 5.011,-5.023 8.5,-6 z"
           id="path7"
           sodipodi:nodetypes="ccccccc" /></g><g
            id="g8"
            transform="translate(-83.437486,-80.475041)"><path
           style="opacity:1"
           fill="#f4f6fa"
           d="m 642.5,335.5 c 8.007,-0.166 16.007,0 24,0.5 14.96,7.377 16.96,17.377 6,30 -2.217,1.275 -4.551,2.275 -7,3 -7.667,0.667 -15.333,0.667 -23,0 -10.258,-4.057 -14.091,-11.557 -11.5,-22.5 2.437,-5.274 6.271,-8.94 11.5,-11 z"
           id="path8" /></g><g
            id="g9"
            transform="translate(-83.437486,-80.475041)"><path
           style="opacity:1"
           fill="#f5f6fa"
           d="m 427.5,335.5 c 19.401,-0.463 38.735,0.037 58,1.5 9.997,5.041 12.83,12.874 8.5,23.5 -2.455,4.649 -6.288,7.483 -11.5,8.5 -19.052,0.949 -38.052,0.615 -57,-1 -10.348,-6.501 -12.514,-15.001 -6.5,-25.5 2.441,-2.954 5.275,-5.287 8.5,-7 z"
           id="path9" /></g><g
            id="g10"
            transform="translate(-83.437486,-80.475041)"><path
           style="opacity:1"
           fill="#f5f7fa"
           d="m 536.5,335.5 c 17.337,-0.167 34.67,0 52,0.5 13.122,5.071 16.622,13.904 10.5,26.5 -2.823,3.325 -6.323,5.492 -10.5,6.5 -17.333,0.667 -34.667,0.667 -52,0 -12.615,-6.026 -15.448,-15.193 -8.5,-27.5 2.736,-2.252 5.569,-4.252 8.5,-6 z"
           id="path10" /></g><g
            id="g12"
            transform="translate(-83.437486,-80.475041)"><path
           style="opacity:1"
           fill="#f7f8fa"
           d="m 222.5,381.5 c 10.378,-1.943 17.878,1.724 22.5,11 0.667,19 0.667,38 0,57 -5.854,10.674 -14.354,13.507 -25.5,8.5 -3.369,-2.365 -5.536,-5.532 -6.5,-9.5 -0.667,-19 -0.667,-38 0,-57 2.696,-3.861 5.863,-7.194 9.5,-10 z"
           id="path12" /></g><g
            id="g13"
            transform="translate(-83.437486,-80.475041)"><path
           style="opacity:1"
           fill="#f92525"
           d="m 788.5,380.5 c 45,1.333 90,1.333 135,0 13.545,5.718 16.712,15.052 9.5,28 -1.558,1.859 -3.391,3.359 -5.5,4.5 -34.37447,1.64272 -91.68279,2.54889 -144,0 -7.558,-5.743 -10.058,-13.243 -7.5,-22.5 2.89,-5.069 7.056,-8.402 12.5,-10 z"
           id="path13"
           sodipodi:nodetypes="ccccccc" /></g><g
            id="g14"
            transform="translate(-83.437486,-80.475041)"><path
           style="opacity:1"
           fill="#88c74b"
           d="m 686.5,666.5 c -4.892,3.929 -9.726,8.263 -14.5,13 -43.683,64.044 -87.85,127.711 -132.5,191 -69.001,0.167 -138.001,0 -207,-0.5 -18.312,-3.957 -27.979,-15.29 -29,-34 -0.227,-4.077 0.607,-7.91 2.5,-11.5 71.43532,-109.44193 145.32379,-217.35303 218,-326 17.922,-16.544 35.255,-15.878 52,2 37.092,55.19 73.925,110.523 110.5,166 z"
           id="path14"
           sodipodi:nodetypes="ccccccccc" /></g><g
            id="g15"
            transform="translate(-83.437486,-80.475041)"><path
           style="opacity:1"
           fill="#f7f8fa"
           d="m 224.5,490.5 c 9.516,-0.495 16.349,3.505 20.5,12 0.667,18 0.667,36 0,54 -2.061,8.884 -7.727,13.55 -17,14 -7.692,-0.696 -12.692,-4.696 -15,-12 -0.667,-19 -0.667,-38 0,-57 2.495,-5.147 6.329,-8.814 11.5,-11 z"
           id="path15" /></g><g
            id="g17"
            transform="translate(-83.437486,-80.475041)"><path
           style="opacity:1"
           fill="#f7f8fa"
           d="m 867.5,525.5 c 10.397,-2.051 17.897,1.616 22.5,11 0.667,18.667 0.667,37.333 0,56 -4.436,9.821 -11.936,13.321 -22.5,10.5 -4.644,-2.641 -7.811,-6.475 -9.5,-11.5 -0.667,-17.667 -0.667,-35.333 0,-53 1.449,-5.612 4.615,-9.945 9.5,-13 z"
           id="path17" /></g><g
            id="g18"
            transform="translate(-83.437486,-80.475041)"><path
           style="opacity:1"
           fill="#f7f8fa"
           d="m 224.5,600.5 c 9.804,-1.017 16.637,2.983 20.5,12 0.667,18 0.667,36 0,54 -2.841,10.5 -9.674,15 -20.5,13.5 -5.86,-1.859 -9.693,-5.693 -11.5,-11.5 -0.667,-19 -0.667,-38 0,-57 2.495,-5.147 6.329,-8.814 11.5,-11 z"
           id="path18" /></g><g
            id="g19"
            transform="translate(-83.437486,-80.475041)"><path
           style="opacity:1"
           fill="#0256f9"
           d="m 85.5,962.5 c -1.0452,-9.967 -1.7119,-19.967 -2,-30 -0.1667,-203.334 0,-406.667 0.5,-610 0.3333,202 0.6667,404 1,606 0.3489,9.342 0.8489,18.676 1.5,28 -0.0046,2.196 -0.338,4.196 -1,6 z"
           id="path19" /></g><g
            id="g20"
            transform="translate(-83.437486,-80.475041)"><path
           style="opacity:1"
           fill="#f7f8f9"
           d="m 869.5,633.5 c 9.357,-0.906 16.191,2.76 20.5,11 0.667,20 0.667,40 0,60 -4.981,10.905 -13.148,14.072 -24.5,9.5 -3.694,-2.687 -6.194,-6.187 -7.5,-10.5 -0.667,-19 -0.667,-38 0,-57 0.444,-3.111 1.777,-5.777 4,-8 2.479,-1.814 4.979,-3.481 7.5,-5 z"
           id="path20" /></g><g
            id="g21"
            transform="translate(-83.437486,-80.475041)"><path
           style="opacity:1"
           fill="#115cfa"
           d="m 1168.5,295.5 c 1.32,215.967 1.32,431.967 0,648 -0.68,-216.004 -1.34,-432.171 -2,-648.5 0.17,-3.167 0.33,-6.333 0.5,-9.5 0.18,3.525 0.68,6.859 1.5,10 z"
           id="path21" /></g><g
            id="g22"
            transform="translate(-83.437486,-80.475041)"><path
           style="opacity:1"
           fill="#57a74b"
           d="m 686.5,666.5 c 15.006,-2.942 27.506,1.391 37.5,13 28.42,41.175 57.087,82.175 86,123 1.422,2.53 1.755,5.197 1,8 -18.528,19.859 -37.028,39.693 -55.5,59.5 -71.999,0.5 -143.999,0.667 -216,0.5 44.65,-63.289 88.817,-126.956 132.5,-191 4.774,-4.737 9.608,-9.071 14.5,-13 z"
           id="path22" /></g><g
            id="g23"
            transform="translate(-83.437486,-80.475041)"><path
           style="opacity:1"
           fill="#f9c813"
           d="m 859.5,1008.5 c -29.494,-28.661 -59.161,-57.161 -89,-85.5 -3.607,-3.098 -6.607,-6.598 -9,-10.5 47.631,-52.966 95.631,-105.633 144,-158 14.634,-15.47 29.134,-31.137 43.5,-47 4.099,-4.608 8.599,-8.608 13.5,-12 9.219,-2.247 17.885,-1.08 26,3.5 21.83,21.167 43.67,42.333 65.5,63.5 7.48,11.517 7.15,22.85 -1,34 -64.706,70.537 -129.206,141.204 -193.5,212 z"
           id="path23" /></g><g
            id="g24"
            transform="translate(-83.437486,-80.475041)"><path
           style="opacity:1"
           fill="#186bee"
           d="m 962.5,695.5 c -4.901,3.392 -9.401,7.392 -13.5,12 -14.366,15.863 -28.866,31.53 -43.5,47 -0.304,-0.65 -0.637,-1.317 -1,-2 2.815,-2.477 4.815,-5.477 6,-9 1.333,-0.667 2.667,-1.333 4,-2 2.643,-4.477 6.143,-8.143 10.5,-11 0.471,-1.746 1.138,-3.413 2,-5 0.333,0.333 0.667,0.667 1,1 2.972,-1.948 4.972,-4.614 6,-8 7.112,-5.779 13.612,-12.279 19.5,-19.5 2.236,-2.267 4.903,-3.934 8,-5 3.375,-0.632 3.709,-0.132 1,1.5 z"
           id="path24" /></g><g
            id="g25"
            transform="translate(-83.437486,-80.475041)"><path
           style="opacity:1"
           fill="#f7f8fa"
           d="m 224.5,710.5 c 9.828,-0.909 16.661,3.091 20.5,12 0.667,18.667 0.667,37.333 0,56 -5.079,10.895 -13.245,14.062 -24.5,9.5 -3.628,-2.638 -6.128,-6.138 -7.5,-10.5 -0.667,-18.667 -0.667,-37.333 0,-56 2.437,-5.274 6.271,-8.94 11.5,-11 z"
           id="path25" /></g><g
            id="g26"
            transform="translate(-83.437486,-80.475041)"><path
           style="opacity:1"
           fill="#f8f8fa"
           d="m 275.5,942.5 c 10.858,0.732 21.858,1.399 33,2 9.105,4.215 12.272,11.215 9.5,21 -2.167,4.833 -5.667,8.333 -10.5,10.5 -17.701,0.898 -35.368,0.564 -53,-1 -24.563,-8.66 -38.563,-25.826 -42,-51.5 0,-1.333 0,-2.667 0,-4 -0.167,-29.335 0,-58.669 0.5,-88 4.015,-8.924 10.848,-12.424 20.5,-10.5 6.267,1.934 10.101,6.1 11.5,12.5 0.333,27.333 0.667,54.667 1,82 4.612,14.781 14.445,23.781 29.5,27 z"
           id="path26" /></g><g
            id="g27"
            transform="translate(-83.437486,-80.475041)"><path
           style="opacity:1"
           fill="#0045fa"
           d="m 212.5,919.5 c 0,1.333 0,2.667 0,4 0.16,1.699 -0.006,3.366 -0.5,5 -0.333,-2.667 -0.667,-5.333 -1,-8 -0.667,-28.667 -0.667,-57.333 0,-86 0.168,28.503 0.668,56.836 1.5,85 z"
           id="path27" /></g><g
            id="g28"
            transform="translate(-83.437486,-80.475041)"><path
           style="opacity:1"
           fill="#f8f9f9"
           d="m 761.5,912.5 c 2.393,3.902 5.393,7.402 9,10.5 29.839,28.339 59.506,56.839 89,85.5 -14.162,15 -28.162,30.16 -42,45.5 -2.318,1.99 -4.984,3.16 -8,3.5 -31.303,-29.3 -62.303,-58.969 -93,-89 -0.21,-4.916 1.29,-9.249 4.5,-13 13.053,-14.789 26.553,-29.123 40.5,-43 z"
           id="path28" /></g><g
            id="g29"
            transform="translate(-83.437486,-80.475041)"><path
           style="opacity:1"
           fill="#8ab4fa"
           d="m 275.5,942.5 c 10.339,-0.166 20.672,0 31,0.5 0.916,0.278 1.582,0.778 2,1.5 -11.142,-0.601 -22.142,-1.268 -33,-2 z"
           id="path29" /></g><g
            id="g30"
            transform="translate(-83.437486,-80.475041)"><path
           style="opacity:1"
           fill="#f5f6fa"
           d="m 355.5,942.5 c 19.336,-0.167 38.67,0 58,0.5 12.394,4.623 16.228,13.123 11.5,25.5 -2.687,3.694 -6.187,6.194 -10.5,7.5 -20.333,0.667 -40.667,0.667 -61,0 -9.438,-4.62 -12.938,-12.12 -10.5,-22.5 2.505,-5.678 6.671,-9.345 12.5,-11 z"
           id="path30" /></g><g
            id="g31"
            transform="translate(-83.437486,-80.475041)"><path
           style="opacity:1"
           fill="#f4f6fa"
           d="m 467.5,942.5 c 20.336,-0.167 40.669,0 61,0.5 11.598,2.599 16.431,9.765 14.5,21.5 -1.908,6.24 -6.075,10.073 -12.5,11.5 -21.333,0.667 -42.667,0.667 -64,0 -11.485,-6.121 -14.319,-14.955 -8.5,-26.5 2.79,-2.965 5.957,-5.298 9.5,-7 z"
           id="path31" /></g><g
            id="g32"
            transform="translate(-83.437486,-80.475041)"><path
           style="opacity:1"
           fill="#f5f6fa"
           d="m 585.5,942.5 c 24.719,-0.461 49.385,0.039 74,1.5 8.481,4.796 11.647,11.963 9.5,21.5 -2.256,5.257 -6.09,8.757 -11.5,10.5 -25,0.667 -50,0.667 -75,0 -11.379,-6.272 -13.879,-15.105 -7.5,-26.5 2.998,-3.238 6.498,-5.571 10.5,-7 z"
           id="path32" /></g><g
            id="g33"
            transform="translate(-83.437486,-80.475041)"><path
           style="opacity:1"
           fill="#2b3843"
           d="m 716.5,968.5 c 30.697,30.031 61.697,59.7 93,89 -3.048,1.79 -6.382,3.29 -10,4.5 -29.45,9.03 -58.784,18.36 -88,28 -15.666,2 -22.166,-4.83 -19.5,-20.5 7,-31 14,-62 21,-93 0.322,-3.166 1.489,-5.833 3.5,-8 z"
           id="path33" /></g></g></g></svg>
