<?xml version="1.0" encoding="UTF-8" standalone="no"?>
<!-- Created with Inkscape (http://www.inkscape.org/) -->

<svg
        xmlns:inkscape="http://www.inkscape.org/namespaces/inkscape"
        xmlns:sodipodi="http://sodipodi.sourceforge.net/DTD/sodipodi-0.dtd"
        width="287.33499mm"
        height="287.33499mm"
        viewBox="0 0 287.33499 287.33499"
        version="1.1"
        id="svg1"
        xml:space="preserve"
        inkscape:version="1.4.2 (ebf0e94, 2025-05-08)"
        sodipodi:docname="appicon.svg"
        xmlns="http://www.w3.org/2000/svg"><sodipodi:namedview
     id="namedview1"
     pagecolor="#ffffff"
     bordercolor="#000000"
     borderopacity="0.24705882"
     inkscape:showpageshadow="2"
     inkscape:pageopacity="0.0"
     inkscape:pagecheckerboard="0"
     inkscape:deskcolor="#d1d1d1"
     inkscape:document-units="mm"
     inkscape:zoom="0.51087175"
     inkscape:cx="733.06069"
     inkscape:cy="419.87054"
     inkscape:window-width="1920"
     inkscape:window-height="1016"
     inkscape:window-x="1305"
     inkscape:window-y="27"
     inkscape:window-maximized="1"
     inkscape:current-layer="layer1" />
    <defs
            id="defs1"/>
    <g
            inkscape:label="Layer 1"
            inkscape:groupmode="layer"
            id="layer1"
            transform="translate(29.810187,-8.3412397)"><path
       style="fill:#5492eb;stroke:none"
       d="M 26.68322,296.84602 C -6.4682369,294.47835 -26.340168,274.44738 -29.587185,240.12525 -30.214361,233.49578 -30.091324,67.684305 -29.454958,61.928375 -25.782099,28.707378 -6.5746946,10.761669 27.741553,8.4889849 33.203186,8.1272739 195.94218,8.1318763 201.30822,8.4938949 232.98453,10.63092 252.58739,28.49544 256.80475,59.069108 l 0.59514,4.314476 v 87.577086 c 0,92.84276 0.0467,89.12209 -1.21432,96.8375 -4.58479,28.05238 -22.73915,45.16382 -51.83464,48.85687 -3.01265,0.38239 -172.437614,0.56451 -177.66771,0.19098 z M 163.6051,266.17208 c 0.50932,-0.298 1.34276,-0.99638 1.85208,-1.55194 6.85698,-7.47955 24.69813,-27.11012 27.88654,-30.68349 0.85827,-0.96189 2.76327,-3.05592 4.23333,-4.65339 5.99322,-6.51266 8.82972,-9.60542 10.08329,-10.99424 1.38971,-1.53965 14.92602,-16.31794 17.73848,-19.36602 4.80667,-5.20934 4.29202,-7.41923 -3.51008,-15.07233 -17.54476,-17.20969 -15.90414,-17.03128 -28.52696,-3.10227 -1.3131,1.44898 -10.52807,11.4277 -15.61687,16.91123 -1.34368,1.4479 -4.28969,4.64996 -10.81367,11.7535 -1.8814,2.04854 -5.33421,5.799 -7.67292,8.33435 -2.3387,2.53534 -5.02609,5.46398 -5.97197,6.50808 -0.94589,1.04411 -4.59697,4.99856 -8.11352,8.78767 -9.16019,9.8702 -8.92665,8.43113 -2.40482,14.81836 14.47316,14.17444 19.34135,18.8542 19.61245,18.8533 0.16423,-5.4e-4 0.71531,-0.24481 1.22464,-0.54281 z M 29.999506,244.68932 c 2.384431,-1.20351 3.094984,-4.27802 1.478498,-6.39734 -1.164094,-1.52621 -1.669257,-1.6623 -6.646867,-1.79068 -6.283776,-0.16207 -9.118609,-1.57766 -10.940162,-5.46306 l -0.701505,-1.49632 -0.132292,-11.24479 c -0.143246,-12.17591 -0.0898,-11.76252 -1.704024,-13.17983 -2.1272775,-1.86778 -5.5908807,-1.12274 -6.6584247,1.43225 -0.5504717,1.31746 -0.5267586,23.78102 0.027902,26.43195 1.2452074,5.95132 5.8034817,10.66041 11.5095467,11.89036 3.124907,0.67357 12.312514,0.55175 13.767328,-0.18254 z m 28.234092,0.18834 c 3.395636,-1.41878 3.822781,-5.86361 0.737261,-7.67185 l -1.113296,-0.65243 h -8.010522 c -7.668919,0 -8.05304,0.0239 -9.007543,0.56036 -3.174028,1.7839 -2.553752,7.13583 0.924972,7.98095 1.502117,0.36492 15.518388,0.18022 16.469128,-0.21703 z m 30.833642,0.0427 c 3.377621,-1.44519 3.609731,-6.39233 0.372002,-7.92874 -1.656054,-0.78584 -17.520475,-0.64741 -18.723618,0.16339 -2.974856,2.00475 -2.829069,5.96501 0.277357,7.53433 1.471967,0.74361 16.429428,0.9348 18.074259,0.23102 z m 33.80211,-0.23102 c 3.13137,-1.57906 3.02593,-6.43232 -0.16876,-7.76714 -1.69604,-0.70865 -19.73521,-0.52319 -21.05119,0.21643 -3.115309,1.75091 -2.857351,6.30697 0.44007,7.77252 1.57903,0.7018 19.32391,0.51239 20.77988,-0.22181 z M 10.963501,195.20441 c 1.971159,-1.32837 2.084439,-1.85201 2.089325,-9.65797 0.0048,-7.63602 -0.07867,-8.14382 -1.54045,-9.37383 -2.4663097,-2.07526 -6.0577029,-1.11398 -6.9325859,1.8556 -0.5758797,1.95468 -0.2212629,14.96149 0.4319241,15.84232 1.4670814,1.97837 4.114871,2.57177 5.9517868,1.33388 z M 181.78983,175.52789 c 1.81148,-1.35247 1.78346,-1.2076 1.86902,-9.66198 0.0745,-7.36161 0.0546,-7.72669 -0.48179,-8.83471 -1.60008,-3.30533 -6.35977,-3.10042 -7.83059,0.33712 -0.45891,1.07253 -0.52952,14.94993 -0.0821,16.13085 0.92674,2.44595 4.48494,3.55217 6.52544,2.02872 z m -170.621561,-9.5509 c 1.74353,-1.30173 1.748575,-1.32535 1.841458,-8.6189 0.102403,-8.041 0.03319,-8.63236 -1.165595,-9.95927 -2.0783611,-2.3005 -5.6558396,-1.74907 -7.14495,1.10131 -0.6831257,1.30761 -0.5312411,14.80739 0.1808512,16.07439 1.2296543,2.18787 4.314693,2.87593 6.2882358,1.40247 z M 181.17351,146.22624 c 0.48547,-0.20284 1.22578,-0.81865 1.64515,-1.36846 l 0.76248,-0.99967 v -7.60797 c 0,-7.30761 -0.0219,-7.63745 -0.55404,-8.35497 -1.97401,-2.66152 -6.00722,-2.42681 -7.44961,0.43354 -0.6742,1.33699 -0.92768,13.91509 -0.3131,15.53713 0.85516,2.25701 3.56546,3.33965 5.90912,2.3604 z M 10.089114,137.45288 c 2.738118,-1.14378 2.964721,-1.93167 2.966589,-10.3148 0.0014,-6.34995 -0.02321,-6.67297 -0.593837,-7.78971 -1.586161,-3.10419 -5.5356342,-3.25658 -7.5343293,-0.29072 -0.8965425,1.33038 -0.9386074,14.94282 -0.050677,16.39931 1.2780931,2.09646 3.2050824,2.83437 5.2122543,1.99592 z M 160.36302,126.26632 c 5.95769,-4.77787 11.05917,-8.79623 11.3366,-8.92968 0.28694,-0.13802 10.88555,-0.30972 24.58152,-0.39823 25.77621,-0.16657 24.97273,-0.12454 28.97782,-1.51586 7.63718,-2.65306 13.64839,-9.21312 15.92455,-17.378549 0.87064,-3.123301 1.07346,-30.823794 0.25503,-34.830091 -2.04128,-9.992248 -9.79239,-17.943675 -19.41552,-19.917282 -3.37332,-0.691835 -62.56983,-0.619241 -65.96198,0.08089 -10.46764,2.160496 -18.387,10.285856 -20.53036,21.064398 -0.62084,3.122081 -0.5274,29.159396 0.11534,32.142719 1.38694,6.437515 4.8939,11.885245 10.17466,15.805405 1.81534,1.34761 1.91875,1.4794 1.78401,2.2735 -0.0787,0.46363 -0.37559,2.39077 -0.65983,4.28254 -2.15253,14.32592 -2.13422,13.89243 -0.64218,15.20246 2.05633,1.80548 1.80412,1.94686 14.06034,-7.88222 z m -4.86321,-30.182154 c -3.10536,-1.904797 -3.10701,-6.238417 -0.003,-7.982942 l 1.0897,-0.612449 18.01421,-0.01405 18.01421,-0.01405 1.1003,0.727899 c 2.71152,1.793813 2.83982,5.680719 0.2516,7.622307 l -0.86065,0.645628 -18.38854,0.06816 c -17.74199,0.06576 -18.4177,0.05027 -19.21779,-0.440494 z m 0.30008,-22.093872 c -3.26242,-1.449995 -3.58021,-5.974985 -0.57596,-8.201133 0.73677,-0.545946 62.84667,-1.068501 65.72182,-0.552943 3.90392,0.700034 4.52048,6.73489 0.87793,8.59318 -1.34179,0.684527 -64.49935,0.838438 -66.02379,0.160896 z M 11.088373,107.95625 c 2.974349,-1.83825 2.999099,-17.257791 0.03117,-19.42176 -1.057511,-0.771051 -3.8064039,-0.770563 -4.8396395,8.59e-4 -1.8585923,1.387639 -1.8216878,1.190596 -1.8216878,9.726491 v 7.71966 l 0.6352829,0.89073 c 1.3159529,1.84509 3.9830854,2.32737 5.9948704,1.08402 z M 77.058689,84.021084 c 2.801666,-1.650238 2.930269,-5.894774 0.228513,-7.542055 -0.808038,-0.492666 -1.345564,-0.525821 -8.539958,-0.526748 l -7.677644,-9.89e-4 -0.98459,0.669046 c -2.953471,2.006936 -2.377186,6.455203 0.994044,7.672885 1.810862,0.654079 14.782202,0.433173 15.979635,-0.272139 z m 27.742831,0.100238 c 3.24163,-1.569246 3.39153,-6.240165 0.24814,-7.731804 -1.63367,-0.775228 -14.880278,-0.645658 -16.059754,0.157086 -3.187581,2.169449 -2.57951,6.786734 1.038156,7.88307 1.743612,0.528402 13.554178,0.281891 14.773458,-0.308352 z m 20.44694,-0.03409 c 5.27978,-2.667265 2.74076,-8.135938 -3.7774,-8.135938 -5.63139,0 -7.99627,2.476454 -6.03537,6.320124 1.20292,2.357923 6.71913,3.378674 9.81277,1.815814 z"
       id="path13" />
        <path
                style="fill:#89c84b;stroke:none"
                d="M 27.47697,296.70325 C -6.3402166,293.9498 -24.884846,276.09226 -29.217207,242.10963 -29.755312,237.88878 -30.060489,74.539262 -29.545426,66.426292 -27.262863,30.472711 -8.4446483,11.376896 27.344678,8.6969627 c 6.38939,-0.4784426 168.454822,-0.4723096 174.446202,0.0066 34.96738,2.7950603 53.76088,22.9784363 55.47233,59.5748103 0.34582,7.394694 0.35027,157.082447 0.005,165.631237 -1.53267,37.94045 -20.03859,59.30036 -54.21646,62.57778 -3.69626,0.35444 -171.341251,0.56056 -175.5747,0.21586 z m 143.04993,-37.528 c 3.30801,-3.63802 6.646,-7.2986 7.41774,-8.13463 0.77174,-0.83603 1.87942,-2.0539 2.4615,-2.70638 2.67985,-3.00394 4.06302,-4.50951 5.22552,-5.68792 0.69122,-0.70069 1.25677,-1.39865 1.25677,-1.55104 0,-0.15239 0.59236,-0.77655 1.31636,-1.38704 0.72399,-0.61048 1.25849,-1.20358 1.18777,-1.31801 -0.0707,-0.11443 0.58708,-0.83051 1.46177,-1.5913 0.87469,-0.76078 1.59035,-1.53601 1.59035,-1.72273 0,-0.18671 0.53456,-0.77751 1.18792,-1.31288 0.65335,-0.53538 1.12778,-1.0707 1.05429,-1.18961 -0.0735,-0.11891 0.51847,-0.77917 1.31547,-1.46725 0.797,-0.68808 1.38528,-1.35431 1.30729,-1.4805 -0.078,-0.12619 0.0105,-0.19673 0.19657,-0.15674 0.1861,0.04 0.34378,-0.0761 0.35039,-0.25793 0.007,-0.18185 0.51661,-0.83669 1.13333,-1.45521 1.24076,-1.24439 3.33814,-3.49813 5.75787,-6.18711 0.87312,-0.97029 2.09351,-2.25703 2.71198,-2.85944 0.61846,-0.60241 1.12448,-1.22176 1.12448,-1.37634 0,-0.15459 0.62507,-0.88375 1.38906,-1.62036 0.76398,-0.73661 2.16297,-2.19704 3.10885,-3.24541 0.94589,-1.04836 2.25557,-2.47464 2.91042,-3.16951 0.65484,-0.69487 1.905,-2.0604 2.77812,-3.03452 2.42967,-2.7107 4.36414,-4.81394 5.82084,-6.32868 0.7276,-0.7566 1.56104,-1.71673 1.85208,-2.13362 0.29104,-0.41689 0.68443,-0.91486 0.8742,-1.10659 0.18977,-0.19173 0.39364,-0.60095 0.45303,-0.90936 0.0594,-0.30841 0.21456,-0.69743 0.34481,-0.86449 0.36512,-0.46827 0.29055,-3.39464 -0.10632,-4.17279 -0.1947,-0.38173 -0.27936,-0.76869 -0.18815,-0.8599 0.0912,-0.0912 0.0269,-0.16583 -0.14285,-0.16583 -0.16977,0 -0.27891,-0.11066 -0.24253,-0.24591 0.0364,-0.13525 -0.17198,-0.44174 -0.46302,-0.68108 -0.29104,-0.23934 -0.35058,-0.3484 -0.13229,-0.24234 0.21828,0.10606 0.0512,-0.17853 -0.37122,-0.63243 -0.42245,-0.45389 -0.85751,-0.76999 -0.96681,-0.70245 -0.10929,0.0676 -2.18975,-1.95572 -4.62324,-4.49615 -2.43348,-2.54043 -4.55826,-4.59423 -4.72173,-4.56399 -0.16347,0.0302 -0.2645,-0.10271 -0.22451,-0.29542 0.04,-0.19272 -0.0358,-0.28333 -0.16846,-0.20135 -0.31874,0.19699 -0.88183,-0.49331 -0.62955,-0.77179 0.10788,-0.11908 0.0568,-0.13671 -0.11359,-0.0392 -0.18495,0.1059 -1.24147,-0.83191 -2.62258,-2.32794 -1.27207,-1.3779 -2.40446,-2.44866 -2.51644,-2.37945 -0.11197,0.0692 -0.37124,-0.11354 -0.57615,-0.40609 -0.20491,-0.29255 -0.45118,-0.45329 -0.54727,-0.3572 -0.0961,0.0961 -0.1747,0.0395 -0.1747,-0.12568 0,-0.1652 -0.1786,-0.23184 -0.39688,-0.14808 -0.21828,0.0838 -0.39687,0.0135 -0.39687,-0.15621 0,-0.16968 -0.11907,-0.23492 -0.26459,-0.14498 -0.14552,0.0899 -0.40171,0.0788 -0.56931,-0.0248 -0.43249,-0.2673 -2.15306,-0.3043 -2.50015,-0.0538 -0.16023,0.11566 -0.60672,0.23639 -0.99219,0.26829 -0.38547,0.0319 -0.70085,0.15813 -0.70085,0.2805 0,0.12237 -0.11906,0.1489 -0.26458,0.059 -0.14552,-0.0899 -0.26459,-0.0304 -0.26459,0.13229 0,0.16269 -0.10658,0.22994 -0.23685,0.14942 -0.13028,-0.0805 -0.30556,0.0326 -0.38952,0.25143 -0.084,0.21879 -0.29938,0.36694 -0.47872,0.32921 -0.17933,-0.0377 -0.33147,0.0892 -0.33809,0.28212 -0.007,0.1929 -0.84546,1.12961 -1.86411,2.08159 -1.01864,0.95197 -1.61396,1.58454 -1.32291,1.40572 0.29104,-0.17883 -0.24474,0.39701 -1.19063,1.27964 -0.94588,0.88263 -1.71979,1.73484 -1.71979,1.89378 0,0.15895 -0.72373,0.96812 -1.6083,1.79815 -0.88456,0.83003 -1.36081,1.34419 -1.05833,1.14259 0.30248,-0.20161 -0.40254,0.53894 -1.5667,1.64566 -1.16417,1.10672 -2.08929,2.1277 -2.05583,2.26886 0.0335,0.14116 -0.59162,0.81406 -1.38906,1.49534 -0.79745,0.68127 -1.4494,1.37305 -1.44879,1.53727 6.2e-4,0.16423 -0.68399,0.97285 -1.52135,1.79695 -0.83736,0.8241 -2.23685,2.28961 -3.10997,3.25671 -3.18316,3.52573 -4.79131,5.25919 -6.15157,6.63092 -0.76398,0.77042 -1.38906,1.51266 -1.38906,1.64942 0,0.13675 -0.74414,0.9702 -1.65364,1.8521 -0.90951,0.88191 -2.30849,2.34333 -3.10886,3.24761 -0.80036,0.90428 -2.05052,2.2764 -2.77812,3.04916 -0.72761,0.77275 -2.15636,2.32095 -3.175,3.44042 -1.01865,1.11948 -2.38787,2.616 -3.04271,3.32561 -0.65485,0.7096 -2.02407,2.19315 -3.04271,3.29678 -1.01865,1.10363 -2.41763,2.56843 -3.10886,3.25511 -0.69122,0.68669 -1.25677,1.37912 -1.25677,1.53875 0,0.15962 -0.59389,0.82419 -1.31976,1.47681 -3.02385,2.71869 -12.24706,13.02395 -12.8856,14.3973 l -0.64147,1.37965 5.3729,5.23248 c 2.95509,2.87787 7.99227,7.80187 11.19373,10.94223 3.20145,3.14035 6.41499,6.25999 7.14118,6.93252 l 1.32034,1.22278 1.0515,-0.58007 c 0.63897,-0.35248 3.41121,-3.17517 7.06607,-7.19465 z M 30.162287,244.82983 c 5.67039,-3.03239 2.468824,-8.3185 -5.177692,-8.54889 -6.536539,-0.19694 -9.039175,-1.39536 -10.929794,-5.23388 l -0.865331,-1.75688 -0.132292,-11.29855 c -0.128124,-10.94258 -0.14973,-11.32206 -0.685786,-12.04496 -2.008079,-2.708 -5.6371558,-2.63081 -7.5546611,0.16068 l -0.6230946,0.9071 0.0034,12.32207 c 0.00454,16.46819 0.8726407,19.4216 6.9391747,23.60814 3.580774,2.47111 15.687311,3.67067 19.026078,1.88517 z m 28.907018,-0.15801 c 3.088461,-2.04508 2.588804,-6.79723 -0.851746,-8.10082 -1.387212,-0.5256 -16.013639,-0.37055 -17.095734,0.18123 -3.777748,1.92633 -3.392363,7.01244 0.642645,8.48131 0.519085,0.18897 3.455766,0.27069 8.486669,0.23617 l 7.692918,-0.0528 z m 29.452054,0.60117 c 3.956488,-1.09883 4.610599,-6.39419 1.037879,-8.40217 -1.590972,-0.89418 -17.775593,-0.8058 -19.002392,0.10376 -3.187161,2.363 -2.60981,7.0795 1.00815,8.2358 1.180856,0.3774 15.630791,0.43075 16.956363,0.0626 z m 33.457181,-0.0274 c 4.05556,-1.0212 4.59427,-6.71725 0.80534,-8.51521 -1.12386,-0.53331 -19.11866,-0.67408 -20.47875,-0.1602 -4.180301,1.57943 -3.892506,7.41639 0.43035,8.72812 1.11824,0.33932 17.86838,0.29343 19.24306,-0.0527 z M 30.784262,214.22848 c 0,-0.0549 -0.20836,-0.2633 -0.463021,-0.46302 -0.419644,-0.32911 -0.429002,-0.31975 -0.0999,0.0999 0.345644,0.44073 0.562916,0.58088 0.562916,0.36312 z m -2.20051,-7.35805 c -0.08446,-0.21106 -0.147156,-0.14837 -0.159852,0.15986 -0.01149,0.27891 0.05105,0.43518 0.138964,0.34726 0.08792,-0.0879 0.09732,-0.31612 0.02089,-0.50712 z m 131.581758,-2.72851 c 0.34178,-0.3638 0.56188,-0.66146 0.48912,-0.66146 -0.0728,0 -0.41192,0.29766 -0.7537,0.66146 -0.34177,0.3638 -0.56188,0.66146 -0.48912,0.66146 0.0728,0 0.41193,-0.29766 0.7537,-0.66146 z M 10.569812,195.56798 c 2.30103,-1.045 2.344517,-1.22304 2.43226,-9.95753 0.0767,-7.63496 0.07335,-7.68919 -0.529167,-8.57463 -2.268394,-3.33357 -7.0645696,-2.60459 -8.1310681,1.23585 -0.3609114,1.29963 -0.3644089,13.12205 -0.00427,14.4188 0.7690733,2.76917 3.596379,4.07458 6.2322411,2.87751 z M 181.97483,175.5992 c 2.8348,-2.16221 3.04414,-17.54886 0.27188,-19.98294 -1.55275,-1.36333 -3.90098,-1.42937 -5.56961,-0.15664 -1.67711,1.27919 -1.69492,1.38567 -1.69492,10.13259 v 7.91094 l 0.75943,1.04836 c 1.50883,2.08288 4.26799,2.54665 6.23322,1.04769 z M 11.281067,166.10281 c 1.748643,-1.33375 1.808562,-1.68418 1.721591,-10.06839 l -0.07777,-7.49728 -0.762482,-0.99912 c -1.946581,-2.55071 -5.925054,-2.16678 -7.506025,0.72435 -0.5707533,1.04373 -0.8518695,13.60589 -0.3428366,15.32023 0.9080868,3.05829 4.539811,4.37192 6.9675246,2.52021 z m 127.982363,-0.0199 c 0,-0.0502 -0.26789,-0.3181 -0.59531,-0.59532 l -0.59531,-0.50402 0.50402,0.59531 c 0.47367,0.55944 0.6866,0.71576 0.6866,0.50403 z m 42.63201,-20.14347 c 1.96965,-1.29736 2.12604,-2.06669 2.03256,-9.99854 l -0.0823,-6.98083 -0.71014,-1.07234 c -1.89574,-2.86264 -6.12598,-2.75036 -7.63246,0.20258 -0.7251,1.42131 -0.80018,14.79358 -0.0914,16.28713 1.10457,2.32771 4.19202,3.07151 6.48376,1.562 z M 10.600545,137.42218 c 0.511846,-0.24289 1.27895,-0.92245 1.704674,-1.51015 l 0.774043,-1.06854 -0.07719,-7.70523 -0.07719,-7.70524 -0.723052,-0.94745 c -1.943484,-2.54664 -5.9819031,-2.18664 -7.545455,0.67263 -0.5707533,1.04374 -0.8518695,13.60589 -0.3428366,15.32023 0.8207838,2.76427 3.7625401,4.14169 6.2870026,2.94375 z m 138.841845,-2.46595 c 0.37863,-0.14396 3.92849,-2.86146 7.88858,-6.03891 3.96009,-3.17744 8.68845,-6.97206 10.50746,-8.43249 4.67628,-3.75445 1.41299,-3.36344 29.50104,-3.53485 21.92443,-0.13379 24.49077,-0.19344 25.84309,-0.60062 9.22211,-2.77676 15.70418,-9.38923 18.2729,-18.6405 0.68457,-2.465475 1.0541,-28.422991 0.46767,-32.851052 -1.46256,-11.043573 -10.00112,-19.979811 -20.88543,-21.858134 -3.61896,-0.62453 -62.88827,-0.439427 -65.24549,0.203767 -10.58336,2.88779 -16.98619,9.080347 -20.04468,19.386392 -0.8361,2.817378 -1.02629,30.159009 -0.23668,34.024247 1.29143,6.32166 4.87546,11.95454 10.03643,15.77389 1.05503,0.78076 1.91823,1.44808 1.91823,1.48292 0,0.16619 -1.10839,7.77697 -1.84878,12.69468 -0.81481,5.41201 -0.82058,5.51892 -0.34975,6.4788 0.84978,1.73241 2.57258,2.52125 4.17541,1.91186 z m 6.05742,-38.872064 c -3.10536,-1.904797 -3.10701,-6.238417 -0.003,-7.982942 l 1.0897,-0.612449 18.01421,-0.01405 18.01421,-0.01405 1.1003,0.727899 c 2.71152,1.793813 2.83982,5.680719 0.2516,7.622307 l -0.86065,0.645628 -18.38854,0.06816 c -17.74199,0.06576 -18.4177,0.05027 -19.21779,-0.440494 z m 0.30008,-22.093872 c -3.26242,-1.449995 -3.58021,-5.974985 -0.57596,-8.201133 0.73677,-0.545946 62.84667,-1.068501 65.72182,-0.552943 3.90392,0.700034 4.52048,6.73489 0.87793,8.59318 -1.34179,0.684527 -64.49935,0.838438 -66.02379,0.160896 z M 50.429575,119.43231 c -0.181901,-0.0734 -0.479558,-0.0734 -0.661459,0 -0.181901,0.0734 -0.03307,0.13346 0.33073,0.13346 0.363802,0 0.51263,-0.0601 0.330729,-0.13346 z m -1.146528,-0.15832 c -0.06063,-0.0379 -0.407899,-0.30582 -0.771702,-0.59531 l -0.661458,-0.52635 0.504028,0.59532 c 0.277215,0.32742 0.624481,0.59531 0.771702,0.59531 0.14722,0 0.218064,-0.031 0.15743,-0.069 z m 50.822053,-0.54637 c 0,-0.0474 -0.327425,-0.37481 -0.727608,-0.7276 l -0.727604,-0.64144 0.641433,0.72761 c 0.599516,0.68005 0.813779,0.84894 0.813779,0.64143 z m -53.710421,-2.65956 c 0,-0.0549 -0.20836,-0.2633 -0.463021,-0.46302 -0.419644,-0.3291 -0.429002,-0.31975 -0.09989,0.0999 0.345644,0.44073 0.562916,0.58089 0.562916,0.36312 z m 46.230426,-0.32454 c -0.08792,-0.0879 -0.316122,-0.0973 -0.507118,-0.0209 -0.211067,0.0845 -0.148372,0.14715 0.159852,0.15985 0.278915,0.0115 0.435185,-0.0511 0.347266,-0.13897 z m -50.199176,-4.43796 c 0,-0.0549 -0.20836,-0.2633 -0.463021,-0.46302 -0.419644,-0.3291 -0.429002,-0.31975 -0.09989,0.0999 0.345644,0.44073 0.562916,0.58089 0.562916,0.36312 z m -1.322917,-1.5875 c 0,-0.0549 -0.208359,-0.2633 -0.463021,-0.46302 -0.419644,-0.3291 -0.429002,-0.31975 -0.0999,0.0999 0.345644,0.44073 0.562916,0.58089 0.562916,0.36312 z m -30.141778,-1.56004 c 2.075156,-1.39845 2.095944,-1.49532 2.095944,-9.766812 0,-6.818769 -0.0396,-7.457369 -0.520942,-8.400877 -1.506708,-2.953392 -5.7161316,-3.096398 -7.5957671,-0.258049 l -0.7468326,1.127757 -0.083136,6.762963 c -0.085882,6.986338 0.053264,8.319708 0.9874479,9.462198 1.4048466,1.71812 4.1581664,2.2219 5.8632858,1.07282 z m 29.083445,0.23713 c 0,-0.0549 -0.20836,-0.2633 -0.463021,-0.46302 -0.419644,-0.32911 -0.429002,-0.31975 -0.09989,0.0999 0.345644,0.44073 0.562916,0.58089 0.562916,0.36313 z m -1.322917,-1.5875 c 0,-0.0549 -0.208359,-0.2633 -0.463021,-0.46302 -0.419644,-0.32911 -0.429002,-0.31975 -0.0999,0.0999 0.345644,0.44073 0.562916,0.58089 0.562916,0.36313 z m -1.322917,-1.5875 c 0,-0.0549 -0.208359,-0.2633 -0.463021,-0.46302 -0.419643,-0.32911 -0.429002,-0.31975 -0.09989,0.0999 0.345643,0.44073 0.562915,0.58089 0.562915,0.36313 z m -1.058333,-1.32292 c 0,-0.0549 -0.208359,-0.2633 -0.463021,-0.46302 -0.419644,-0.32911 -0.429002,-0.31975 -0.09989,0.0999 0.345644,0.44073 0.562916,0.58089 0.562916,0.36313 z m -2.116667,-2.64583 c 0,-0.0549 -0.208359,-0.2633 -0.463021,-0.46302 -0.419644,-0.32911 -0.429002,-0.31975 -0.09989,0.0999 0.345643,0.44073 0.562915,0.58089 0.562915,0.36313 z m -1.058333,-1.314309 c 0,-0.05021 -0.267891,-0.318097 -0.595313,-0.595312 l -0.595312,-0.504028 0.504028,0.595312 c 0.473662,0.559447 0.686597,0.715757 0.686597,0.504028 z m -1.322917,-1.59611 c 0,-0.05494 -0.208359,-0.263302 -0.463021,-0.463021 -0.419644,-0.329107 -0.429002,-0.319749 -0.09989,0.0999 0.345643,0.440729 0.562915,0.580887 0.562915,0.363126 z m -1.322917,-1.5875 c 0,-0.05494 -0.208359,-0.263302 -0.46302,-0.463021 -0.419644,-0.329108 -0.429003,-0.319749 -0.0999,0.0999 0.345643,0.440729 0.562915,0.580887 0.562915,0.363126 z m -1.058333,-1.314307 c 0,-0.05021 -0.26789,-0.318097 -0.595312,-0.595312 l -0.595313,-0.504028 0.504028,0.595312 c 0.473662,0.559447 0.686597,0.715762 0.686597,0.504028 z m -1.058333,-1.331527 c 0,-0.05494 -0.20836,-0.263301 -0.463021,-0.46302 -0.419644,-0.329108 -0.429002,-0.319749 -0.0999,0.09989 0.345644,0.44073 0.562916,0.580888 0.562916,0.363126 z m -1.058334,-1.322916 c 0,-0.05494 -0.208359,-0.263302 -0.46302,-0.463021 -0.419644,-0.329108 -0.429003,-0.319749 -0.0999,0.0999 0.345643,0.440729 0.562915,0.580887 0.562915,0.363126 z m -4.7625,-5.820834 c 0,-0.05494 -0.208359,-0.263301 -0.46302,-0.463021 -0.419644,-0.329107 -0.429003,-0.319749 -0.0999,0.09989 0.345643,0.440729 0.562915,0.580887 0.562915,0.363126 z M 77.00655,84.127963 c 2.969878,-1.437694 3.277242,-5.745308 0.548807,-7.691368 -0.852296,-0.607901 -0.98564,-0.618814 -8.495835,-0.695299 l -7.629948,-0.0777 -1.104145,0.647072 c -3.010322,1.764167 -3.01626,5.927015 -0.01105,7.746135 1.517129,0.918351 14.824917,0.975086 16.692171,0.07116 z m 27.67524,0.197115 c 3.48404,-1.455726 3.68596,-6.098762 0.3536,-8.13074 -1.07906,-0.657977 -14.100055,-0.778974 -15.588271,-0.144854 -3.526201,1.502495 -3.575751,6.734814 -0.0782,8.257769 1.174906,0.511595 14.095121,0.526635 15.312871,0.01783 z m 20.82243,-0.171257 c 3.10612,-1.584625 3.10633,-6.464346 3.4e-4,-8.070516 -2.25581,-1.166523 -8.25925,-0.421679 -9.61819,1.193324 -3.88569,4.617882 3.58105,9.956937 9.61785,6.877192 z M 5.119678,76.90973 c 0,-0.05494 -0.2083594,-0.263301 -0.4630208,-0.46302 -0.4196439,-0.329108 -0.4290023,-0.319749 -0.099895,0.09989 0.3456437,0.44073 0.5629157,0.580888 0.5629157,0.363126 z M 1.5068128,71.574256 C 1.4206421,71.349699 1.293394,71.222715 1.2240392,71.292069 c -0.069355,0.06936 -0.047619,0.253084 0.048301,0.408286 0.2608923,0.422133 0.4133795,0.340125 0.2344726,-0.126099 z m -2.8209776,-9.166324 c -0.084462,-0.211067 -0.1471567,-0.148372 -0.1598525,0.159853 -0.011489,0.278915 0.051046,0.435184 0.1389643,0.347265 0.087919,-0.08792 0.097319,-0.316122 0.020888,-0.507118 z m 0,-5.55625 c -0.084462,-0.211067 -0.1471567,-0.148372 -0.1598525,0.159853 -0.011489,0.278915 0.051046,0.435184 0.1389643,0.347265 0.087919,-0.08792 0.097319,-0.316122 0.020888,-0.507118 z M 49.750419,56.322515 c -0.08446,-0.211066 -0.147156,-0.148372 -0.159852,0.159853 -0.01149,0.278915 0.05105,0.435184 0.138964,0.347266 0.08792,-0.08792 0.09732,-0.316122 0.02089,-0.507119 z M 42.425929,41.68775 c -0.642681,-0.654844 -1.228042,-1.190625 -1.300802,-1.190625 -0.07276,0 0.393538,0.535781 1.036218,1.190625 0.642681,0.654843 1.228042,1.190625 1.300802,1.190625 0.07276,0 -0.393538,-0.535782 -1.036218,-1.190625 z M 7.7992604,40.298687 c 0.3291075,-0.419644 0.3197491,-0.429002 -0.099895,-0.0999 -0.2546615,0.19972 -0.4630209,0.408079 -0.4630209,0.463021 0,0.217761 0.217272,0.0776 0.5629157,-0.363126 z M 27.802187,34.516439 c -0.08792,-0.08792 -0.316122,-0.09732 -0.507118,-0.02089 -0.211067,0.08446 -0.148372,0.147156 0.159852,0.159852 0.278915,0.01149 0.435185,-0.05105 0.347266,-0.138964 z"
                id="path12"/>
        <path
                style="fill:#0065fa;stroke:none;stroke-width:0.997912"
                d="M 27.476957,295.50008 C -6.3402221,292.75812 -24.884847,274.97509 -29.217207,241.13425 -29.755312,236.93101 -30.060489,74.263056 -29.545426,66.183937 -27.262864,30.380369 -8.4446533,11.36423 27.344665,8.6954785 33.734053,8.2190321 195.79945,8.2251395 201.79083,8.7020509 236.7582,11.485449 255.55169,31.584611 257.26314,68.02829 c 0.34582,7.36384 0.35027,156.42703 0.005,164.94015 -1.53267,37.78215 -20.03858,59.05294 -54.21644,62.31668 -3.69626,0.35296 -171.341215,0.55822 -175.574663,0.21496 z m 143.211713,-37.5047 c 3.39386,-3.69445 6.61149,-7.18608 7.15029,-7.75917 0.5388,-0.5731 1.62273,-1.75876 2.40874,-2.6348 0.78601,-0.87604 2.21476,-2.46814 3.175,-3.538 0.96024,-1.06987 2.16261,-2.38293 2.67193,-2.9179 0.50932,-0.53497 1.56826,-1.67524 2.35318,-2.53393 0.78493,-0.85869 2.03509,-2.22194 2.77813,-3.02944 0.74304,-0.80749 1.93288,-2.11172 2.6441,-2.89827 0.71121,-0.78656 1.96137,-2.14561 2.77812,-3.02013 0.81676,-0.87453 2.25892,-2.46868 3.2048,-3.54257 0.94589,-1.0739 1.96562,-2.19615 2.26608,-2.4939 0.30045,-0.29775 1.24088,-1.31204 2.08982,-2.25397 0.84896,-0.94195 2.21047,-2.43049 3.0256,-3.30788 0.81512,-0.8774 1.96313,-2.12233 2.55112,-2.76653 3.28083,-3.59442 9.13102,-9.94303 13.08613,-14.20105 3.39432,-3.65428 5.02708,-5.71741 5.02708,-6.35212 0,-0.26383 0.127,-0.55786 0.28222,-0.6534 0.39085,-0.24054 0.23977,-3.07991 -0.24306,-4.56802 -0.31085,-0.95805 -0.90121,-1.69518 -2.76886,-3.45724 -1.30557,-1.23177 -4.18138,-4.01807 -6.39069,-6.19177 -7.34828,-7.22986 -9.54566,-9.22119 -10.62717,-9.63067 -1.71457,-0.64915 -6.09649,-0.10885 -6.39695,0.78877 -0.0513,0.15334 -0.24831,0.27882 -0.43773,0.27882 -0.18941,0 -0.54696,0.30787 -0.79455,0.68416 -0.24758,0.37628 -1.12448,1.36622 -1.94866,2.19985 -0.82417,0.83364 -2.09381,2.1638 -2.82142,2.95592 -0.7276,0.79212 -2.08604,2.26242 -3.01876,3.26734 -5.05111,5.44214 -5.32537,5.74098 -9.28436,10.11663 -1.09141,1.20628 -2.4011,2.62733 -2.91042,3.15791 -0.50932,0.53058 -1.87854,2.01662 -3.04271,3.30233 -1.16416,1.28571 -2.59291,2.83129 -3.175,3.43463 -0.58208,0.60333 -1.9513,2.0799 -3.04271,3.28125 -1.0914,1.20136 -2.40109,2.62062 -2.91041,3.15394 -1.27105,1.33091 -3.43367,3.67546 -5.95313,6.4539 -1.16415,1.28383 -2.53337,2.76875 -3.0427,3.29981 -0.50932,0.53108 -1.87854,2.00892 -3.0427,3.28413 -1.16417,1.27521 -2.59292,2.81265 -3.175,3.41653 -1.15042,1.19351 -4.78333,5.09191 -10.70767,11.4902 -2.54076,2.74402 -3.99764,4.5469 -4.44042,5.49503 l -0.659,1.41109 0.6275,0.59566 c 0.34513,0.32761 5.96199,5.77446 12.48193,12.1041 l 11.85442,11.50844 1.10361,-0.60625 c 0.69927,-0.38413 3.36445,-3.06732 7.27428,-7.32343 z M 30.162273,243.8431 c 5.670389,-3.01974 2.468823,-8.28379 -5.177691,-8.51322 -6.536537,-0.19612 -9.039173,-1.38954 -10.929791,-5.21204 l -0.865331,-1.74955 -0.132292,-11.25141 c -0.128124,-10.89692 -0.14973,-11.27482 -0.685786,-11.9947 -2.008078,-2.6967 -5.6371544,-2.61984 -7.5546593,0.16001 l -0.6230944,0.90331 0.0034,12.27066 c 0.00454,16.39948 0.8726405,19.34056 6.9391727,23.50964 3.580774,2.46079 15.687308,3.65535 19.026074,1.8773 z m 28.907011,-0.15735 c 3.08846,-2.03655 2.588803,-6.76887 -0.851746,-8.06702 -1.387211,-0.52341 -16.013635,-0.36901 -17.09573,0.18047 -3.777747,1.9183 -3.392362,6.98318 0.642645,8.44592 0.519085,0.18819 3.455765,0.26957 8.486667,0.23519 l 7.692916,-0.0526 z m 29.452047,0.59866 c 3.956487,-1.09424 4.610598,-6.36751 1.037879,-8.36711 -1.590972,-0.89045 -17.775589,-0.80244 -19.002388,0.10332 -3.18716,2.35315 -2.609809,7.04997 1.00815,8.20144 1.180856,0.37583 15.630787,0.42895 16.956359,0.0623 z m 33.457169,-0.0273 c 4.05556,-1.01693 4.59427,-6.68922 0.80534,-8.47968 -1.12386,-0.53108 -19.11865,-0.67126 -20.47874,-0.15953 -4.180301,1.57284 -3.892506,7.38545 0.43035,8.6917 1.11824,0.33791 17.86837,0.29221 19.24305,-0.0525 z M 92.427411,213.93447 c 0.932275,-1.34292 4.921306,-7.00646 8.864519,-12.58564 7.27886,-10.29873 16.45861,-23.42731 21.5438,-30.81124 3.27528,-4.75585 4.65987,-6.34735 6.07497,-6.98281 0.95102,-0.42706 1.32805,-1.46437 0.53225,-1.46437 -0.12855,0 -0.23373,-0.17786 -0.23373,-0.39523 0,-0.21737 -0.11906,-0.39521 -0.26458,-0.39521 -0.14552,0 -0.26458,-0.17786 -0.26458,-0.39523 0,-0.21737 -0.11907,-0.39521 -0.26459,-0.39521 -0.14552,0 -0.26458,-0.17786 -0.26458,-0.39522 0,-0.21737 -0.11906,-0.39522 -0.26458,-0.39522 -0.14552,0 -0.26459,-0.17785 -0.26459,-0.39522 0,-0.21737 -0.11906,-0.39522 -0.26458,-0.39522 -0.14552,0 -0.26458,-0.17785 -0.26458,-0.39522 0,-0.21737 -0.11907,-0.39522 -0.26459,-0.39522 -0.14552,0 -0.26458,-0.17785 -0.26458,-0.39522 0,-0.21737 -0.11906,-0.39521 -0.26458,-0.39521 -0.14552,0 -0.26459,-0.17786 -0.26459,-0.39523 0,-0.21737 -0.11906,-0.39521 -0.26458,-0.39521 -0.14552,0 -0.26458,-0.17786 -0.26458,-0.39523 0,-0.21736 -0.11907,-0.39521 -0.26459,-0.39521 -0.14552,0 -0.26458,-0.17785 -0.26458,-0.39522 0,-0.21737 -0.11906,-0.39522 -0.26458,-0.39522 -0.14552,0 -0.26459,-0.17785 -0.26459,-0.39522 0,-0.21737 -0.11906,-0.39522 -0.26458,-0.39522 -0.14552,0 -0.26458,-0.17785 -0.26458,-0.39522 0,-0.21737 -0.11907,-0.39521 -0.26459,-0.39521 -0.14552,0 -0.26458,-0.17786 -0.26458,-0.39523 0,-0.21737 -0.11906,-0.39521 -0.26458,-0.39521 -0.14552,0 -0.26459,-0.17786 -0.26459,-0.39523 0,-0.21737 -0.11906,-0.39521 -0.26458,-0.39521 -0.14552,0 -0.26458,-0.17786 -0.26458,-0.39522 0,-0.21737 -0.11907,-0.39522 -0.26459,-0.39522 -0.14552,0 -0.26458,-0.17785 -0.26458,-0.39522 0,-0.21737 -0.11906,-0.39522 -0.26458,-0.39522 -0.14552,0 -0.26459,-0.13255 -0.26459,-0.29456 0,-0.16201 -0.35718,-0.69969 -0.79375,-1.19484 -0.43656,-0.49513 -0.79375,-1.07398 -0.79375,-1.2863 0,-0.21233 -0.11906,-0.38605 -0.26458,-0.38605 -0.14552,0 -0.26458,-0.16054 -0.26458,-0.35674 0,-0.19622 -0.29766,-0.67659 -0.66145,-1.0675 -0.3638,-0.39091 -0.66146,-0.8232 -0.66146,-0.96066 0,-0.13744 -0.11906,-0.2499 -0.26458,-0.2499 -0.14552,0 -0.26459,-0.17784 -0.26459,-0.39521 0,-0.21737 -0.11906,-0.39523 -0.26458,-0.39523 -0.14552,0 -0.26458,-0.12352 -0.26458,-0.27449 0,-0.15098 -0.23813,-0.52903 -0.52917,-0.84012 -0.29104,-0.31109 -0.52917,-0.72112 -0.52917,-0.91116 0,-0.19004 -0.09,-0.34554 -0.19999,-0.34554 -0.11,0 -0.3482,-0.33343 -0.52935,-0.74095 -0.18114,-0.40752 -0.56739,-0.99539 -0.85833,-1.30637 -0.29095,-0.31099 -0.52899,-0.68896 -0.52899,-0.83993 0,-0.15098 -0.11907,-0.2745 -0.26459,-0.2745 -0.14552,0 -0.26458,-0.17785 -0.26458,-0.39522 0,-0.21737 -0.11906,-0.39522 -0.26458,-0.39522 -0.14552,0 -0.26459,-0.17785 -0.26459,-0.39522 0,-0.21737 -0.11906,-0.39522 -0.26458,-0.39522 -0.14552,0 -0.26458,-0.17785 -0.26458,-0.39522 0,-0.21736 -0.11907,-0.39522 -0.26459,-0.39522 -0.14552,0 -0.26458,-0.17784 -0.26458,-0.39521 0,-0.21737 -0.11906,-0.39523 -0.26458,-0.39523 -0.14552,0 -0.26459,-0.15549 -0.26459,-0.34553 0,-0.19004 -0.23812,-0.60007 -0.52916,-0.91116 -0.29105,-0.3111 -0.52917,-0.68915 -0.52917,-0.84012 0,-0.15098 -0.11906,-0.2745 -0.26458,-0.2745 -0.14552,0 -0.26459,-0.17785 -0.26459,-0.39522 0,-0.21737 -0.11906,-0.39522 -0.26458,-0.39522 -0.14552,0 -0.26458,-0.17784 -0.26458,-0.39521 0,-0.21737 -0.11907,-0.39523 -0.26459,-0.39523 -0.14552,0 -0.26458,-0.17784 -0.26458,-0.39521 0,-0.21737 -0.11906,-0.39523 -0.26458,-0.39523 -0.14552,0 -0.26459,-0.17784 -0.26459,-0.39521 0,-0.21737 -0.11906,-0.39522 -0.26458,-0.39522 -0.14552,0 -0.26458,-0.17785 -0.26458,-0.39522 0,-0.21737 -0.11907,-0.39522 -0.26459,-0.39522 -0.14552,0 -0.26458,-0.17785 -0.26458,-0.39522 0,-0.21737 -0.11906,-0.39522 -0.26458,-0.39522 -0.14552,0 -0.26459,-0.16797 -0.26459,-0.37326 0,-0.2053 -0.0893,-0.41279 -0.19843,-0.46108 -0.38795,-0.17172 -1.62799,-2.00166 -1.46582,-2.16315 0.0907,-0.0903 0.026,-0.16426 -0.14373,-0.16426 -0.16978,0 -0.30868,-0.17785 -0.30868,-0.39522 0,-0.21737 -0.11907,-0.39522 -0.26459,-0.39522 -0.14552,0 -0.26458,-0.17785 -0.26458,-0.39522 0,-0.21736 -0.11906,-0.39522 -0.26458,-0.39522 -0.14552,0 -0.26459,-0.17784 -0.26459,-0.39521 0,-0.21737 -0.11906,-0.39523 -0.26458,-0.39523 -0.14552,0 -0.26458,-0.17784 -0.26458,-0.39521 0,-0.21737 -0.11907,-0.39523 -0.26459,-0.39523 -0.14552,0 -0.26458,-0.16515 -0.26458,-0.36702 0,-0.20187 -0.17859,-0.43528 -0.39688,-0.51869 -0.21828,-0.0834 -0.39687,-0.33323 -0.39687,-0.55515 0,-0.22192 -0.0989,-0.40349 -0.21987,-0.40349 -0.12094,0 -0.3834,-0.32605 -0.58326,-0.72456 -0.503085,-1.00312 -1.337212,-1.91023 -1.756533,-1.91023 -0.192914,0 -0.350754,-0.11857 -0.350754,-0.26348 0,-0.14492 -0.178594,-0.26348 -0.396875,-0.26348 -0.218281,0 -0.396875,-0.0933 -0.396875,-0.20741 0,-0.11407 -0.266127,-0.22738 -0.591394,-0.25178 -0.325266,-0.0244 -0.633092,-0.16893 -0.684056,-0.32118 -0.05097,-0.15226 -0.201556,-0.20981 -0.334648,-0.1279 -0.133092,0.0819 -0.378803,0.0647 -0.546023,-0.0382 -0.446494,-0.27479 -3.409236,-0.30593 -3.575783,-0.0375 -0.07835,0.12624 -0.301312,0.16882 -0.495472,0.0946 -0.194159,-0.0742 -0.392239,-0.0177 -0.440176,0.12548 -0.04794,0.14321 -0.353286,0.28035 -0.678552,0.30474 -0.325267,0.0244 -0.591394,0.15746 -0.591394,0.29569 0,0.13823 -0.07222,0.17941 -0.160485,0.0915 -0.171237,-0.17052 -0.369015,-0.0255 -1.822423,1.3362 -0.51013,0.47794 -0.927508,0.98185 -0.927508,1.11979 0,0.13793 -0.119062,0.25079 -0.264583,0.25079 -0.145521,0 -0.264583,0.17785 -0.264583,0.39522 0,0.21737 -0.119063,0.39522 -0.264584,0.39522 -0.145521,0 -0.264583,0.1555 -0.264583,0.34554 0,0.19004 -0.267891,0.63237 -0.595313,0.98296 -0.327422,0.35058 -0.565547,0.72863 -0.529166,0.84012 0.03638,0.11148 -0.05292,0.20269 -0.198438,0.20269 -0.145521,0 -0.264583,0.16517 -0.264583,0.36703 0,0.20187 -0.18614,0.43817 -0.413645,0.5251 -0.227505,0.0869 -0.339021,0.27831 -0.247814,0.42527 0.09121,0.14697 -0.01962,0.33808 -0.246293,0.42469 -0.226669,0.0866 -0.345732,0.26446 -0.264584,0.39522 0.08115,0.13075 -0.03791,0.3086 -0.264582,0.39522 -0.226669,0.0866 -0.353962,0.25121 -0.282873,0.36575 0.07109,0.11454 -0.0562,0.27913 -0.282873,0.36575 -0.226669,0.0866 -0.345731,0.26447 -0.264583,0.39522 0.08115,0.13075 -0.03792,0.3086 -0.264583,0.39521 -0.226669,0.0866 -0.337501,0.27773 -0.246294,0.42469 0.09121,0.14697 -0.01963,0.33808 -0.246294,0.4247 -0.226669,0.0866 -0.345731,0.26446 -0.264583,0.39521 0.08115,0.13075 -0.03791,0.30861 -0.264584,0.39522 -0.226669,0.0866 -0.345731,0.26447 -0.264583,0.39522 0.08115,0.13075 -0.0386,0.30886 -0.266103,0.3958 -0.227505,0.0869 -0.413645,0.32324 -0.413645,0.5251 0,0.20186 -0.119062,0.36703 -0.264583,0.36703 -0.145521,0 -0.264584,0.17785 -0.264584,0.39522 0,0.21736 -0.126089,0.39522 -0.280198,0.39522 -0.154109,0 -0.206093,0.1194 -0.115522,0.26534 0.09057,0.14594 -0.02146,0.33647 -0.248967,0.4234 -0.227505,0.0869 -0.413645,0.32324 -0.413645,0.5251 0,0.20187 -0.119062,0.36704 -0.264583,0.36704 -0.145521,0 -0.264584,0.17784 -0.264584,0.39521 0,0.21737 -0.119062,0.39522 -0.264583,0.39522 -0.145521,0 -0.264583,0.17785 -0.264583,0.39522 0,0.21737 -0.119063,0.39522 -0.264584,0.39522 -0.14552,0 -0.264583,0.17785 -0.264583,0.39522 0,0.21737 -0.119063,0.39522 -0.264583,0.39522 -0.145521,0 -0.264584,0.17785 -0.264584,0.39521 0,0.21737 -0.119062,0.39523 -0.264583,0.39523 -0.145521,0 -0.264583,0.17784 -0.264583,0.39521 0,0.21737 -0.119063,0.39523 -0.264584,0.39523 -0.145521,0 -0.264583,0.17784 -0.264583,0.39521 0,0.21737 -0.119063,0.39522 -0.264583,0.39522 -0.145521,0 -0.264583,0.17785 -0.264583,0.39522 0,0.21737 -0.119062,0.39522 -0.264583,0.39522 -0.145521,0 -0.264583,0.17785 -0.264583,0.39522 0,0.21737 -0.119063,0.39522 -0.264584,0.39522 -0.145521,0 -0.264583,0.16516 -0.264583,0.36702 0,0.20188 -0.179698,0.43571 -0.399329,0.51964 -0.219631,0.0839 -0.369199,0.24482 -0.332372,0.35754 0.09988,0.3057 -1.122947,2.18103 -1.42216,2.18103 -0.14224,0 -0.184515,0.1194 -0.09394,0.26534 0.09057,0.14594 -0.02146,0.33647 -0.248968,0.4234 -0.227505,0.0869 -0.413645,0.32324 -0.413645,0.5251 0,0.20187 -0.119062,0.36704 -0.264582,0.36704 -0.145521,0 -0.264583,0.17784 -0.264583,0.39521 0,0.21738 -0.12609,0.39522 -0.280199,0.39522 -0.154109,0 -0.206094,0.1194 -0.115522,0.26534 0.09057,0.14594 -0.02146,0.33647 -0.248968,0.42341 -0.227505,0.0869 -0.413645,0.30088 -0.413645,0.47542 0,0.17454 -0.238125,0.57188 -0.529166,0.88297 -0.291042,0.31109 -0.529167,0.68915 -0.529167,0.84012 0,0.15097 -0.119063,0.2745 -0.264584,0.2745 -0.14552,0 -0.264583,0.17784 -0.264583,0.39521 0,0.21738 -0.119062,0.39522 -0.264583,0.39522 -0.145521,0 -0.264584,0.17785 -0.264584,0.39522 0,0.21738 -0.119062,0.39522 -0.264583,0.39522 -0.145521,0 -0.264583,0.17785 -0.264583,0.39522 0,0.21738 -0.119063,0.39522 -0.264583,0.39522 -0.14552,0 -0.264583,0.17785 -0.264583,0.39522 0,0.21737 -0.119062,0.39522 -0.264583,0.39522 -0.145521,0 -0.264584,0.17784 -0.264584,0.39521 0,0.21738 -0.119062,0.39523 -0.264583,0.39523 -0.145521,0 -0.264583,0.15549 -0.264583,0.34553 0,0.19005 -0.238125,0.60008 -0.529167,0.91116 -0.291042,0.3111 -0.529167,0.68915 -0.529167,0.84012 0,0.15098 -0.119062,0.2745 -0.264583,0.2745 -0.145521,0 -0.264583,0.18157 -0.264583,0.40349 0,0.22192 -0.17791,0.47148 -0.395356,0.55457 -0.217445,0.0831 -0.328961,0.25806 -0.247813,0.38881 0.08115,0.13075 -0.0386,0.30886 -0.266103,0.3958 -0.227505,0.0869 -0.413644,0.32323 -0.413644,0.5251 0,0.20186 -0.126089,0.36702 -0.280198,0.36702 -0.154109,0 -0.215871,0.10366 -0.137249,0.23034 0.07862,0.12668 -0.139981,0.53434 -0.485784,0.90591 -0.345804,0.37157 -0.564657,0.73939 -0.486341,0.81739 0.07832,0.078 -0.05324,0.21656 -0.29235,0.30793 -0.23911,0.0914 -0.434745,0.33129 -0.434745,0.53316 0,0.20187 -0.119062,0.36702 -0.264583,0.36702 -0.145521,0 -0.264583,0.17786 -0.264583,0.39523 0,0.21737 -0.119063,0.39521 -0.264584,0.39521 -0.14552,0 -0.264583,0.17786 -0.264583,0.39523 0,0.21737 -0.119063,0.39521 -0.264583,0.39521 -0.145521,0 -0.264584,0.17786 -0.264584,0.39523 0,0.21736 -0.119062,0.39521 -0.264583,0.39521 -0.145521,0 -0.264583,0.18157 -0.264583,0.40349 0,0.22192 -0.170273,0.46856 -0.378386,0.54808 -0.208113,0.0796 -0.499576,0.49079 -0.647695,0.91391 -0.14812,0.42313 -0.401591,0.76932 -0.56327,0.76932 -0.161679,0 -0.219857,0.1194 -0.129285,0.26534 0.09057,0.14594 -0.02078,0.33621 -0.247449,0.42283 -0.226669,0.0866 -0.345731,0.26446 -0.264583,0.39521 0.08115,0.13075 -0.03791,0.30861 -0.264584,0.39522 -0.226668,0.0866 -0.353961,0.25121 -0.282872,0.36575 0.07109,0.11454 -0.04866,0.27625 -0.266103,0.35935 -0.217446,0.083 -0.395356,0.33264 -0.395356,0.55456 0,0.22192 -0.119062,0.40349 -0.264583,0.40349 -0.145521,0 -0.264583,0.17785 -0.264583,0.39522 0,0.21737 -0.119063,0.39522 -0.264584,0.39522 -0.14552,0 -0.264582,0.17785 -0.264582,0.39521 0,0.21737 -0.119063,0.39523 -0.264583,0.39523 -0.145521,0 -0.264584,0.17784 -0.264584,0.39521 0,0.21737 -0.119062,0.39523 -0.264583,0.39523 -0.145521,0 -0.264583,0.17784 -0.264583,0.39521 0,0.21737 -0.119063,0.39522 -0.264584,0.39522 -0.145521,0 -0.264583,0.15549 -0.264583,0.34554 0,0.19004 -0.238125,0.60006 -0.529167,0.91116 -0.291041,0.3111 -0.529166,0.67183 -0.529166,0.80165 0,0.12981 -0.285161,0.54243 -0.633691,0.91693 -0.34853,0.3745 -0.585473,0.72892 -0.52654,0.78762 0.05893,0.0587 -0.186002,0.42169 -0.544299,0.8067 -0.358299,0.385 -0.567841,0.70359 -0.465648,0.708 0.102192,0.004 -0.02506,0.13026 -0.282782,0.27967 -0.257722,0.14941 -0.399004,0.38378 -0.31396,0.52081 0.08505,0.13703 -0.03083,0.32002 -0.257498,0.40663 -0.226669,0.0866 -0.345732,0.26448 -0.264584,0.39523 0.08115,0.13075 -0.03791,0.3086 -0.264583,0.39521 -0.226669,0.0866 -0.345731,0.26447 -0.264583,0.39523 0.08115,0.13075 -0.03791,0.30859 -0.264584,0.39521 -0.226669,0.0866 -0.345731,0.26447 -0.264583,0.39522 0.08115,0.13076 -0.0386,0.30886 -0.266103,0.3958 -0.227505,0.0869 -0.413645,0.32323 -0.413645,0.5251 0,0.20187 -0.119062,0.36703 -0.264583,0.36703 -0.145521,0 -0.264584,0.17784 -0.264584,0.39522 0,0.21737 -0.126088,0.39522 -0.280197,0.39522 -0.154109,0 -0.206094,0.1194 -0.115522,0.26533 0.09057,0.14594 -0.02078,0.33622 -0.247448,0.42283 -0.226669,0.0866 -0.345732,0.26448 -0.264584,0.39523 0.08115,0.13075 -0.0386,0.30885 -0.266103,0.3958 -0.227504,0.0869 -0.413645,0.32322 -0.413645,0.52509 0,0.20187 -0.119062,0.36703 -0.264583,0.36703 -0.145521,0 -0.264583,0.17785 -0.264583,0.39523 0,0.21736 -0.119063,0.39521 -0.264584,0.39521 -0.14552,0 -0.264583,0.17784 -0.264583,0.39522 0,0.21737 -0.119062,0.39522 -0.264583,0.39522 -0.145521,0 -0.264584,0.17784 -0.264584,0.39522 0,0.21737 -0.119062,0.39522 -0.264583,0.39522 -0.145521,0 -0.264583,0.17784 -0.264583,0.39522 0,0.21737 -0.119063,0.39521 -0.264584,0.39521 -0.14552,0 -0.264583,0.17785 -0.264583,0.39523 0,0.21737 -0.126088,0.39521 -0.280197,0.39521 -0.154109,0 -0.206094,0.1194 -0.115522,0.26534 0.09057,0.14594 -0.02078,0.33621 -0.247449,0.42283 -0.226669,0.0866 -0.353961,0.25121 -0.282873,0.36575 0.07109,0.11455 -0.0562,0.27913 -0.282873,0.36575 -0.226668,0.0866 -0.337501,0.27773 -0.246293,0.42468 0.09121,0.14697 -0.02031,0.33834 -0.247814,0.42528 -0.227505,0.0869 -0.413645,0.32323 -0.413645,0.52509 0,0.20188 -0.126089,0.36703 -0.280198,0.36703 -0.154109,0 -0.206094,0.1194 -0.115522,0.26534 0.09057,0.14594 -0.02078,0.33621 -0.247449,0.42283 -0.226668,0.0866 -0.345731,0.26447 -0.264583,0.39522 0.08115,0.13076 -0.03791,0.3086 -0.264583,0.39522 -0.226669,0.0866 -0.345732,0.26447 -0.264584,0.39522 0.08115,0.13076 -0.0386,0.30886 -0.266103,0.3958 -0.227504,0.0869 -0.413644,0.32323 -0.413644,0.52509 0,0.20188 -0.126089,0.36704 -0.280198,0.36704 -0.154109,0 -0.206094,0.1194 -0.115521,0.26534 0.09057,0.14593 -0.02078,0.33621 -0.247449,0.42282 -0.226669,0.0866 -0.345732,0.26448 -0.264584,0.39523 0.08115,0.13075 -0.0386,0.30885 -0.266103,0.3958 -0.227504,0.0869 -0.413644,0.32322 -0.413644,0.52509 0,0.20187 -0.119063,0.36703 -0.264584,0.36703 -0.145521,0 -0.264583,0.17785 -0.264583,0.39523 0,0.21736 -0.126089,0.39521 -0.280198,0.39521 -0.154109,0 -0.206094,0.1194 -0.115522,0.26534 0.09057,0.14594 -0.02078,0.33621 -0.247449,0.42283 -0.226669,0.0866 -0.345731,0.26447 -0.264583,0.39522 0.08115,0.13075 -0.03791,0.3086 -0.264584,0.39521 -0.226669,0.0866 -0.345731,0.26448 -0.264583,0.39523 0.08115,0.13075 -0.03791,0.3086 -0.264583,0.39521 -0.226669,0.0866 -0.345732,0.26447 -0.264584,0.39523 0.08115,0.13075 -0.03791,0.30859 -0.264582,0.39521 -0.226669,0.0866 -0.345731,0.26447 -0.264583,0.39522 0.08115,0.13076 -0.03791,0.3086 -0.264584,0.39522 -0.226669,0.0866 -0.353961,0.25121 -0.282873,0.36575 0.07109,0.11455 -0.0562,0.27914 -0.282872,0.36575 -0.226669,0.0866 -0.345732,0.26447 -0.264584,0.39522 0.08115,0.13075 -0.03791,0.3086 -0.264583,0.39522 -0.226669,0.0866 -0.338021,0.27689 -0.247449,0.42283 0.09057,0.14593 0.03156,0.26534 -0.131137,0.26534 -0.162697,0 -0.22816,0.109 -0.145474,0.24223 0.08269,0.13324 -0.03785,0.42965 -0.267867,0.6587 -0.230014,0.22905 -0.326358,0.41646 -0.214099,0.41646 0.112259,0 0.07054,0.13302 -0.09272,0.29559 -0.163253,0.16257 -0.233859,0.45899 -0.156901,0.6587 0.07696,0.19971 0.03391,0.36311 -0.09566,0.36311 -0.273018,0 -0.25112,3.20888 0.02493,3.65368 0.101895,0.16418 0.111679,0.41707 0.02174,0.56199 -0.08994,0.14492 -0.02469,0.26348 0.144984,0.26348 0.169678,0 0.239973,0.17785 0.15621,0.39522 -0.08376,0.21736 -0.02994,0.39522 0.1196,0.39522 0.149542,0 0.198309,0.11856 0.108372,0.26348 -0.08994,0.14491 -0.0304,0.26347 0.132292,0.26347 0.162697,0 0.226751,0.11129 0.142342,0.2473 -0.08441,0.136 0.05739,0.36953 0.315114,0.51894 0.257722,0.14942 0.361025,0.27527 0.229561,0.27967 -0.251648,0.008 1.558739,1.85237 1.818667,1.85237 0.08286,0 0.622988,0.29692 1.200274,0.65982 0.577285,0.3629 1.286226,0.69579 1.575424,0.73974 0.289198,0.0439 0.604027,0.15779 0.699621,0.25299 0.09559,0.0952 12.574957,0.17932 27.731918,0.18695 l 27.558114,0.0138 z m 67.738059,-10.60954 c 0.34178,-0.36229 0.56188,-0.6587 0.48912,-0.6587 -0.0728,0 -0.41192,0.29641 -0.7537,0.6587 -0.34177,0.36228 -0.56188,0.6587 -0.48912,0.6587 0.0728,0 0.41193,-0.29642 0.7537,-0.6587 z M 10.569802,194.78679 c 2.30103,-1.04064 2.344517,-1.21794 2.43226,-9.91598 0.0767,-7.60311 0.07335,-7.65711 -0.529167,-8.53886 -2.268393,-3.31966 -7.0645679,-2.59372 -8.1310661,1.2307 -0.3609114,1.29421 -0.3644089,13.0673 -0.00427,14.35864 0.7690731,2.75761 3.5963781,4.05758 6.2322391,2.8655 z M 181.97478,174.90133 c 2.8348,-2.15319 3.04414,-17.47564 0.27188,-19.89956 -1.55275,-1.35765 -3.90098,-1.42341 -5.56961,-0.15599 -1.67711,1.27385 -1.69492,1.37989 -1.69492,10.09031 v 7.87793 l 0.75943,1.04399 c 1.50883,2.07419 4.26799,2.53602 6.23322,1.04332 z M 11.281057,165.44456 c 1.748643,-1.32818 1.808562,-1.67715 1.721591,-10.02638 l -0.07777,-7.466 -0.762482,-0.99495 c -1.94658,-2.54007 -5.9250525,-2.15774 -7.5060231,0.72133 -0.5707532,1.03937 -0.8518693,13.54912 -0.3428365,15.25631 0.9080865,3.04553 4.5398099,4.35368 6.9675226,2.50969 z m 127.982333,-0.0198 c 0,-0.05 -0.26789,-0.31677 -0.59531,-0.59283 l -0.59531,-0.50192 0.50402,0.59283 c 0.47367,0.5571 0.6866,0.71277 0.6866,0.50192 z m 42.632,-20.05942 c 1.96965,-1.29194 2.12604,-2.05806 2.03256,-9.95682 l -0.0823,-6.9517 -0.71014,-1.06787 c -1.89574,-2.85069 -6.12598,-2.73888 -7.63246,0.20174 -0.7251,1.41538 -0.80018,14.73185 -0.0914,16.21917 1.10457,2.318 4.19202,3.05869 6.48376,1.55548 z M 10.600535,136.8836 c 0.511846,-0.24188 1.27895,-0.9186 1.704674,-1.50385 l 0.774043,-1.06408 -0.07719,-7.67308 -0.07719,-7.67309 -0.723052,-0.9435 c -1.943483,-2.53601 -5.9819016,-2.17752 -7.5454531,0.66982 -0.5707532,1.03939 -0.8518693,13.54913 -0.3428365,15.25631 0.8207836,2.75274 3.7625392,4.12441 6.2870006,2.93147 z m 138.841815,-2.45566 c 0.37863,-0.14336 3.92849,-2.84952 7.88858,-6.01371 3.96008,-3.16419 8.68844,-6.94297 10.50745,-8.39731 4.67628,-3.73879 1.41299,-3.34941 29.50104,-3.5201 21.92442,-0.13323 24.49076,-0.19263 25.84308,-0.59812 9.22211,-2.76517 15.70418,-9.35005 18.2729,-18.56272 0.68457,-2.455188 1.0541,-28.304398 0.46767,-32.713983 -1.46256,-10.997495 -10.00112,-19.896447 -20.88543,-21.766933 -3.61896,-0.621924 -62.88825,-0.437593 -65.24547,0.202917 -10.58336,2.875741 -16.98619,9.04246 -20.04468,19.305504 -0.8361,2.805623 -1.02629,30.033173 -0.23668,33.882283 1.29143,6.295282 4.87546,11.904662 10.03643,15.708072 1.05503,0.77751 1.91823,1.44204 1.91823,1.47674 0,0.16549 -1.10839,7.74452 -1.84878,12.64171 -0.81481,5.38943 -0.82058,5.49589 -0.34975,6.45177 0.84978,1.72518 2.57258,2.51073 4.17541,1.90388 z m 6.05742,-38.709875 c -3.10536,-1.896849 -3.10701,-6.212387 -0.003,-7.949633 l 1.0897,-0.609894 18.0142,-0.01399 18.01421,-0.01399 1.1003,0.724862 c 2.71152,1.786329 2.83982,5.657017 0.2516,7.590504 l -0.86065,0.642934 -18.38854,0.06788 c -17.74198,0.06549 -18.41769,0.05006 -19.21778,-0.438656 z m 0.30008,-22.001687 c -3.26242,-1.443945 -3.58021,-5.950055 -0.57596,-8.166914 0.73677,-0.543668 62.84665,-1.064043 65.7218,-0.550636 3.90392,0.697113 4.52048,6.706789 0.87793,8.557326 -1.34179,0.681671 -64.49933,0.834939 -66.02377,0.160224 z M 50.429556,118.96879 c -0.181901,-0.0731 -0.479558,-0.0731 -0.661459,0 -0.181901,0.0731 -0.03307,0.1329 0.33073,0.1329 0.363802,0 0.51263,-0.0599 0.330729,-0.1329 z m -1.146528,-0.15766 c -0.06063,-0.0377 -0.407899,-0.30454 -0.771701,-0.59282 l -0.661458,-0.52416 0.504028,0.59284 c 0.277215,0.32605 0.62448,0.59282 0.771701,0.59282 0.14722,0 0.218064,-0.0309 0.15743,-0.0687 z m -2.888367,-3.19255 c 0,-0.0547 -0.20836,-0.2622 -0.463021,-0.46109 -0.419644,-0.32773 -0.429002,-0.31842 -0.09989,0.0995 0.345644,0.43889 0.562916,0.57847 0.562916,0.36161 z m -3.968749,-4.74263 c 0,-0.0547 -0.20836,-0.2622 -0.463021,-0.46109 -0.419644,-0.32773 -0.429002,-0.31841 -0.09989,0.0995 0.345644,0.4389 0.562916,0.57847 0.562916,0.36161 z m -1.322917,-1.58088 c 0,-0.0547 -0.208359,-0.2622 -0.463021,-0.46109 -0.419643,-0.32772 -0.429001,-0.31841 -0.0999,0.0995 0.345644,0.43889 0.562916,0.57846 0.562916,0.3616 z m -30.141771,-1.55353 c 2.075156,-1.39261 2.095944,-1.48908 2.095944,-9.726059 0,-6.790318 -0.0396,-7.426253 -0.520942,-8.365825 -1.506708,-2.941069 -5.7161302,-3.083478 -7.5957653,-0.256972 l -0.7468324,1.123052 -0.083136,6.734745 c -0.085882,6.957189 0.053264,8.284999 0.9874477,9.422719 1.4048462,1.71095 4.1581654,2.21263 5.863284,1.06834 z m 29.083439,0.23614 c 0,-0.0547 -0.20836,-0.2622 -0.463021,-0.46109 -0.419644,-0.32773 -0.429002,-0.31841 -0.09989,0.0995 0.345644,0.43889 0.562916,0.57846 0.562916,0.36161 z m -1.322917,-1.58087 c 0,-0.0547 -0.208359,-0.2622 -0.463021,-0.46109 -0.419644,-0.32774 -0.429002,-0.31842 -0.0999,0.0995 0.345644,0.43889 0.562916,0.57847 0.562916,0.36162 z m -1.322917,-1.58088 c 0,-0.0547 -0.208359,-0.2622 -0.463021,-0.46109 -0.419643,-0.32773 -0.429002,-0.31841 -0.09989,0.0995 0.345643,0.43889 0.562915,0.57846 0.562915,0.36161 z m -1.058333,-1.3174 c 0,-0.0547 -0.208359,-0.2622 -0.46302,-0.46109 -0.419644,-0.32773 -0.429002,-0.31841 -0.09989,0.0995 0.345643,0.4389 0.562915,0.57847 0.562915,0.36162 z m -2.116666,-2.63479 c 0,-0.0547 -0.208359,-0.2622 -0.463021,-0.46109 -0.419644,-0.32774 -0.429002,-0.31841 -0.09989,0.0995 0.345643,0.4389 0.562915,0.57847 0.562915,0.36162 z m -1.058333,-1.308826 c 0,-0.05 -0.267891,-0.316769 -0.595313,-0.592828 l -0.595312,-0.501925 0.504028,0.592828 c 0.473662,0.557113 0.686597,0.712771 0.686597,0.501925 z m -1.322917,-1.58945 c 0,-0.05471 -0.208358,-0.262203 -0.46302,-0.461089 -0.419644,-0.327734 -0.429002,-0.318415 -0.09989,0.09948 0.345643,0.43889 0.562914,0.578463 0.562914,0.361611 z m -1.322916,-1.580876 c 0,-0.05471 -0.208359,-0.262204 -0.46302,-0.461089 -0.419644,-0.327735 -0.429003,-0.318415 -0.0999,0.09948 0.345643,0.43889 0.562915,0.578463 0.562915,0.361611 z m -1.058333,-1.308823 c 0,-0.05 -0.26789,-0.31677 -0.595312,-0.592829 l -0.595313,-0.501925 0.504028,0.592829 c 0.473662,0.557112 0.686597,0.712775 0.686597,0.501925 z m -1.058333,-1.325972 c 0,-0.05471 -0.20836,-0.262202 -0.463021,-0.461088 -0.419644,-0.327735 -0.429002,-0.318415 -0.0999,0.09947 0.345644,0.438891 0.562916,0.578465 0.562916,0.361611 z m -1.058333,-1.317396 c 0,-0.05471 -0.208359,-0.262203 -0.46302,-0.461089 -0.419644,-0.327735 -0.429003,-0.318415 -0.0999,0.09948 0.345643,0.43889 0.562915,0.578463 0.562915,0.361611 z M 22.582166,86.63585 c 0,-0.05471 -0.208359,-0.262202 -0.46302,-0.461089 -0.419644,-0.327734 -0.429003,-0.318415 -0.0999,0.09947 0.345643,0.43889 0.562915,0.578463 0.562915,0.361611 z m 54.424359,-2.824101 c 2.969877,-1.431696 3.277241,-5.721336 0.548807,-7.659277 -0.852296,-0.605364 -0.98564,-0.616232 -8.495833,-0.692398 l -7.629946,-0.07738 -1.104145,0.644372 c -3.010322,1.756806 -3.01626,5.902285 -0.01105,7.713815 1.517128,0.914519 14.824913,0.971017 16.692167,0.07086 z m 27.675235,0.196292 c 3.48404,-1.449652 3.68596,-6.073315 0.3536,-8.096815 -1.07906,-0.655232 -14.100053,-0.775724 -15.588269,-0.144249 -3.5262,1.496225 -3.57575,6.706713 -0.0782,8.223314 1.174906,0.50946 14.095119,0.524437 15.312869,0.01775 z m 20.82242,-0.170542 c 3.10612,-1.578013 3.10633,-6.437374 3.4e-4,-8.036843 -2.25581,-1.161655 -8.25924,-0.419919 -9.61818,1.188345 -3.88569,4.598615 3.58104,9.915393 9.61784,6.848498 z M 5.1196698,76.623633 c 0,-0.05471 -0.2083594,-0.262202 -0.4630207,-0.461088 -0.4196438,-0.327735 -0.4290022,-0.318415 -0.099895,0.09947 0.3456436,0.438891 0.5629156,0.578465 0.5629156,0.361611 z M 1.5068054,71.310421 c -0.086171,-0.22362 -0.2134187,-0.350074 -0.2827735,-0.28101 -0.069355,0.06907 -0.047619,0.252028 0.048301,0.406583 0.2608922,0.420372 0.4133794,0.338706 0.2344725,-0.125573 z m -2.8209769,-9.128078 c -0.084462,-0.210186 -0.1471567,-0.147753 -0.1598525,0.159186 -0.011489,0.277751 0.051046,0.433368 0.1389643,0.345816 0.087919,-0.08755 0.097319,-0.314803 0.020888,-0.505002 z m 0,-5.533067 c -0.084462,-0.210186 -0.1471567,-0.147753 -0.1598525,0.159186 -0.011489,0.277751 0.051046,0.433368 0.1389643,0.345816 0.087919,-0.08755 0.097319,-0.314803 0.020888,-0.505002 z M 49.7504,56.122317 c -0.08446,-0.210186 -0.147156,-0.147753 -0.159852,0.159186 -0.01149,0.277751 0.05105,0.433368 0.138964,0.345817 0.08792,-0.08755 0.09732,-0.314803 0.02089,-0.505003 z M 42.425912,41.548614 c -0.642681,-0.652111 -1.228042,-1.185657 -1.300802,-1.185657 -0.07276,0 0.393538,0.533546 1.036218,1.185657 0.642681,0.652111 1.228042,1.185657 1.300802,1.185657 0.07276,0 -0.393538,-0.533546 -1.036218,-1.185657 z M 7.7992515,40.165347 c 0.3291075,-0.417893 0.3197491,-0.427212 -0.099895,-0.09948 -0.2546615,0.198886 -0.4630208,0.406376 -0.4630208,0.461089 0,0.216852 0.2172719,0.07728 0.5629155,-0.361611 z M 27.802173,34.407225 c -0.08792,-0.08755 -0.316121,-0.09691 -0.507117,-0.0208 -0.211067,0.08411 -0.148372,0.146542 0.159852,0.159185 0.278914,0.01144 0.435184,-0.05084 0.347265,-0.138385 z"
                id="path11"/>
        <path
                style="fill:#5aa94c;stroke:none"
                d="m 133.4426,275.41519 c -1.90241,-0.75636 -2.89626,-2.80896 -2.40199,-4.9608 0.15476,-0.67373 1.28081,-5.51122 2.50234,-10.74997 1.22154,-5.23875 2.54766,-11.01328 2.94695,-12.83229 0.39929,-1.81901 0.8099,-3.46584 0.91246,-3.65962 0.17176,-0.3245 24.32851,22.91271 24.57163,23.6363 0.0488,0.14517 -1.43951,0.75541 -3.30729,1.35608 -24.56876,7.90125 -23.93899,7.72123 -25.2241,7.2103 z m 51.85833,-32.61171 c 0,-0.0549 0.20836,-0.2633 0.46302,-0.46302 0.41965,-0.3291 0.429,-0.31975 0.0999,0.0999 -0.34565,0.44073 -0.56292,0.58088 -0.56292,0.36312 z m -32.01458,-18.78541 c 0,-0.0549 0.20836,-0.26331 0.46302,-0.46302 0.41964,-0.32911 0.429,-0.31975 0.0999,0.0999 -0.34564,0.44073 -0.56291,0.58089 -0.56291,0.36313 z m 6.08541,-6.61459 c 0,-0.0549 0.20836,-0.2633 0.46303,-0.46302 0.41964,-0.32911 0.429,-0.31975 0.0999,0.0999 -0.34564,0.44073 -0.56292,0.58088 -0.56292,0.36312 z M 36.290903,217.05805 c 0.190996,-0.0764 0.419199,-0.067 0.507118,0.0209 0.08792,0.0879 -0.06835,0.15045 -0.347266,0.13897 -0.308225,-0.0127 -0.370919,-0.0754 -0.159852,-0.15986 z m 54.713456,-0.14998 c 0.301689,-0.52265 2.420167,-3.55906 10.199021,-14.61823 7.41442,-10.54107 16.61908,-23.76258 21.63239,-31.07263 3.28882,-4.79553 4.65949,-6.37378 6.09931,-7.02305 0.57943,-0.26128 1.00907,-0.54774 0.95475,-0.63657 -0.0543,-0.0888 0.8473,-0.20065 2.00361,-0.2485 4.30079,-0.17795 5.9147,0.87362 9.76493,6.36252 16.15534,23.0311 21.15298,30.33502 21.15298,30.9145 0,0.492 -0.95105,1.58309 -7.27122,8.34183 -1.46158,1.563 -5.81822,6.30294 -6.60525,7.18638 l -1.00177,1.12447 h -28.55983 c -22.773294,0 -28.52115,-0.067 -28.368921,-0.33072 z m -62.529284,-8.40053 c 0,-0.65484 0.0516,-0.92273 0.114662,-0.59531 0.06306,0.32742 0.06306,0.8632 0,1.19063 -0.06306,0.32742 -0.114662,0.0595 -0.114662,-0.59532 z M 168.3676,207.6139 c 0,-0.0549 0.20836,-0.2633 0.46302,-0.46302 0.41964,-0.32911 0.429,-0.31975 0.0999,0.0999 -0.34564,0.44073 -0.56291,0.58089 -0.56291,0.36313 z M 29.196762,204.81899 c 0,-0.13693 0.117699,-0.32171 0.261552,-0.41061 0.149982,-0.0927 0.194339,0.0135 0.103985,0.24896 -0.175893,0.45837 -0.365537,0.54224 -0.365537,0.16165 z M 171.27801,204.4389 c 0,-0.0549 0.20836,-0.2633 0.46303,-0.46302 0.41964,-0.32911 0.429,-0.31975 0.0999,0.0999 -0.34564,0.44073 -0.56292,0.58089 -0.56292,0.36313 z m 3.3073,-3.60427 c 0.26339,-0.29104 0.53842,-0.52917 0.61118,-0.52917 0.0728,0 -0.0832,0.23813 -0.3466,0.52917 -0.26339,0.29104 -0.53842,0.52916 -0.61118,0.52916 -0.0728,0 0.0832,-0.23812 0.3466,-0.52916 z m 5.95312,-6.4499 c 0,-0.0549 0.20836,-0.2633 0.46302,-0.46302 0.41965,-0.32911 0.429,-0.31975 0.0999,0.0999 -0.34565,0.44073 -0.56292,0.58088 -0.56292,0.36312 z m 40.18292,-11.74021 c -0.32911,-0.41964 -0.31975,-0.429 0.0999,-0.0999 0.25467,0.19972 0.46303,0.40808 0.46303,0.46302 0,0.21776 -0.21728,0.0776 -0.56292,-0.36313 z m -8.73125,-8.46666 c -0.32911,-0.41965 -0.31975,-0.42901 0.0999,-0.0999 0.44073,0.34565 0.58089,0.56292 0.36313,0.56292 -0.0549,0 -0.2633,-0.20836 -0.46302,-0.46302 z m -12.93084,0.0985 c 0,-0.0549 0.20836,-0.2633 0.46303,-0.46302 0.41964,-0.32911 0.429,-0.31975 0.0999,0.0999 -0.34564,0.44073 -0.56292,0.58089 -0.56292,0.36313 z m 6.42119,-3.78763 c 0.25743,-0.0671 0.61461,-0.0627 0.79375,0.01 0.17913,0.0725 -0.0315,0.12736 -0.46806,0.12197 -0.43656,-0.005 -0.58312,-0.0647 -0.32569,-0.13178 z M 49.095355,119.16396 C 48.670913,118.99368 43.156085,112.37045 31.840286,98.440876 29.889739,96.039782 27.455198,93.062738 26.430195,91.825223 25.405192,90.587708 23.796778,88.599546 22.855942,87.407084 21.338073,85.483264 21.02505,85.219802 20.077817,85.068832 -2.8090707,81.421117 -9.3091781,50.712968 10.228032,38.53596 33.539173,24.006764 60.061008,50.075694 45.867473,73.566796 l -1.078362,1.78475 0.672401,3.805602 c 0.36982,2.093081 1.144465,6.484509 1.721434,9.758727 1.146642,6.507036 1.975808,11.149385 3.827819,21.431255 1.511479,8.39132 1.15172,10.04733 -1.91541,8.81683 z m 38.17745,-0.87933 c 0.263389,-0.29105 0.53842,-0.52917 0.61118,-0.52917 0.07276,0 -0.08321,0.23812 -0.346597,0.52917 -0.263389,0.29104 -0.538421,0.52916 -0.611181,0.52916 -0.07276,0 0.08321,-0.23812 0.346598,-0.52916 z m 5.890064,-2.56838 c 0.329118,-0.0633 0.805368,-0.0609 1.058333,0.005 0.252965,0.0662 -0.01631,0.118 -0.598397,0.11506 -0.582084,-0.003 -0.789055,-0.0571 -0.459936,-0.1204 z M 155.49981,96.084166 c -3.10536,-1.904797 -3.10701,-6.238417 -0.003,-7.982942 l 1.0897,-0.612449 18.01421,-0.01405 18.01421,-0.01405 1.1003,0.727899 c 2.71152,1.793813 2.83982,5.680719 0.2516,7.622307 l -0.86065,0.645628 -18.38854,0.06816 c -17.74199,0.06576 -18.4177,0.05027 -19.21779,-0.440494 z m 0.30008,-22.093872 c -3.26242,-1.449995 -3.58021,-5.974985 -0.57596,-8.201133 0.73677,-0.545946 62.84667,-1.068501 65.72182,-0.552943 3.90392,0.700034 4.52048,6.73489 0.87793,8.59318 -1.34179,0.684527 -64.49935,0.838438 -66.02379,0.160896 z"
                id="path10"/>
        <path
                style="fill:#f92526;stroke:none"
                d="m 133.4426,275.41519 c -1.90241,-0.75636 -2.89626,-2.80896 -2.40199,-4.9608 0.15476,-0.67373 1.28081,-5.51122 2.50234,-10.74997 1.22154,-5.23875 2.54766,-11.01328 2.94695,-12.83229 0.39929,-1.81901 0.79979,-3.44778 0.89001,-3.61949 0.14867,-0.28297 24.58814,23.17531 24.65595,23.66607 0.0147,0.10672 -1.50138,0.68551 -3.36916,1.28618 -24.56876,7.90125 -23.93899,7.72123 -25.2241,7.2103 z M 49.095355,119.16396 C 48.670913,118.99368 43.156085,112.37045 31.840286,98.440876 29.889739,96.039782 27.455198,93.062738 26.430195,91.825223 25.405192,90.587708 23.796778,88.599546 22.855942,87.407084 21.338073,85.483264 21.02505,85.219802 20.077817,85.068832 -1.7634838,81.587763 -9.1216885,53.190405 8.3689355,39.881002 31.186946,22.517751 60.687003,49.039638 45.856867,73.584349 l -1.088967,1.802303 1.219527,6.830757 c 0.67074,3.756917 1.640967,9.212008 2.156061,12.122425 0.515093,2.910417 1.591646,8.863546 2.39234,13.229166 2.065971,11.2643 1.860375,12.91923 -1.440473,11.59496 z M 155.49981,96.084166 c -3.10536,-1.904797 -3.10701,-6.238417 -0.003,-7.982942 l 1.0897,-0.612449 18.01421,-0.01405 18.01421,-0.01405 1.1003,0.727899 c 2.71152,1.793813 2.83982,5.680719 0.2516,7.622307 l -0.86065,0.645628 -18.38854,0.06816 c -17.74199,0.06576 -18.4177,0.05027 -19.21779,-0.440494 z m 0.30008,-22.093872 c -3.26242,-1.449995 -3.58021,-5.974985 -0.57596,-8.201133 0.73677,-0.545946 62.84667,-1.068501 65.72182,-0.552943 3.90392,0.700034 4.52048,6.73489 0.87793,8.59318 -1.34179,0.684527 -64.49935,0.838438 -66.02379,0.160896 z"
                id="path9"/>
        <path
                style="fill:#2e3b44;stroke:none"
                d="m 133.4426,275.41519 c -1.90241,-0.75636 -2.89626,-2.80896 -2.40199,-4.9608 0.15476,-0.67373 1.28081,-5.51122 2.50234,-10.74997 1.22154,-5.23875 2.54766,-11.01328 2.94695,-12.83229 0.39929,-1.81901 0.79979,-3.44778 0.89001,-3.61949 0.14867,-0.28297 24.58814,23.17531 24.65595,23.66607 0.0147,0.10672 -1.50138,0.68551 -3.36916,1.28618 -24.56876,7.90125 -23.93899,7.72123 -25.2241,7.2103 z M 51.157179,118.97848 c 0,-0.0549 0.208359,-0.2633 0.463021,-0.46302 0.419644,-0.32911 0.429002,-0.31975 0.0999,0.0999 -0.345644,0.44072 -0.562916,0.58088 -0.562916,0.36312 z M 5.3505124,77.340354 c -0.3291075,-0.419643 -0.3197491,-0.429002 0.099895,-0.09989 0.2546615,0.199719 0.4630208,0.408078 0.4630208,0.46302 0,0.217762 -0.217272,0.0776 -0.5629156,-0.363126 z M 5.913428,41.952333 c 0.3417744,-0.363802 0.6809391,-0.661458 0.7536996,-0.661458 0.07276,0 -0.1473419,0.297656 -0.4891162,0.661458 -0.3417743,0.363802 -0.6809391,0.661458 -0.7536995,0.661458 -0.072761,0 0.1473418,-0.297656 0.4891161,-0.661458 z"
                id="path8"/>
        <path
                style="fill:#ffffff;stroke:none;stroke-width:0.342552;stroke-linecap:round"
                d="m 822.69761,130.22509 c -37.07776,0.14155 -74.17369,0.14812 -111.22896,1.54263 -15.02215,0.43882 -29.34873,6.49581 -41.96456,14.31871 -23.76324,15.11913 -40.15077,40.91378 -44.68908,68.60602 -1.471,18.0233 -0.70396,36.14628 -0.93408,54.21161 0.22588,20.28182 -0.47062,40.61997 1.15076,60.85646 2.69268,19.77658 12.41417,38.34186 26.09854,52.75239 5.49239,6.14943 12.46607,10.6586 18.47046,16.22628 2.24296,2.57998 0.0514,6.20019 0.15667,9.17936 -2.58913,19.49748 -6.41293,38.86042 -7.91474,58.48608 -0.55315,3.75475 1.07676,7.32944 3.96362,9.71168 2.51498,2.77826 6.58281,5.29482 10.2756,3.091 9.32861,-4.59314 17.01253,-11.84737 25.3222,-17.98293 20.13722,-15.69042 39.73065,-32.08991 60.12935,-47.43643 2.99282,-1.51654 6.68284,-0.62165 9.97583,-1.08948 55.30211,-1.57656 110.66485,-1.15604 165.98227,-2.38417 9.56913,-0.12991 19.23392,-1.14979 28.13353,-4.89516 22.9743,-8.2778 42.13628,-25.92702 52.78178,-47.8478 5.0958,-9.83236 8.4253,-20.65478 8.5659,-31.79224 1.663,-30.60009 1.1708,-61.26966 1.0561,-91.90136 -0.1446,-13.50394 -0.5093,-27.3465 -5.6362,-40.05129 -10.9574,-30.73733 -38.21185,-55.93877 -70.65125,-61.78442 -19.50754,-1.65752 -39.13103,-1.23035 -58.69251,-1.59056 -23.44989,-0.18416 -46.90067,-0.24384 -70.35123,-0.22638 z m 79.10517,85.12659 c 15.47729,0.21178 31.05885,-0.35031 46.4538,0.84778 8.28882,0.95078 12.84213,10.1428 11.92049,17.79185 -0.47849,6.52802 -5.05608,14.02366 -12.33298,13.80266 -34.67794,1.60087 -69.4843,1.47322 -104.22157,1.65 -45.71135,-0.04 -91.46101,0.17951 -137.14495,-0.94773 -7.24238,0.25105 -13.14105,-6.94134 -13.42298,-13.72788 -0.4323,-5.28929 0.8917,-11.02557 5.14144,-14.61651 1.92662,-3.38095 5.95592,-2.14134 9.19381,-2.6078 51.37113,-1.59257 102.80947,-1.71956 154.21372,-2.09791 13.39964,-0.0637 26.79942,-0.10031 40.19922,-0.0945 z m -128.46263,84.69171 c 22.66792,0 45.33585,0 68.00378,0 5.64512,3.20867 11.17947,8.29441 11.38143,15.25521 0.90723,6.55755 -2.64154,13.1102 -8.21379,16.60338 -2.61974,2.15702 -6.51054,0.54783 -9.68893,1.04956 -43.13084,-0.0521 -86.26732,0.32824 -129.39452,-0.22524 -5.76183,-0.58396 -10.1415,-5.78075 -11.84021,-11.05933 -1.44971,-5.39772 -0.47578,-11.76263 3.53065,-15.85831 2.49925,-2.4667 5.77639,-4.93425 9.17167,-5.76527 22.34998,0 44.69995,0 67.04992,0 z"
                id="path14"
                transform="matrix(0.26458333,0,0,0.26458333,-29.999704,8.2200296)"/>
        <path
                style="fill:#ffffff;stroke:none;stroke-width:0.171276;stroke-linecap:round"
                d="m 343.93952,255.39171 c -4.12237,2.56487 -8.39866,5.63984 -10.10021,10.4075 -2.78858,6.83115 -0.5517,15.4754 5.52584,19.79612 4.08014,3.28804 9.55079,3.3925 14.52709,3.75321 13.21074,0.42283 26.45723,0.41454 39.64798,-0.51311 3.67473,-0.42286 7.52993,-0.34493 11.02445,-1.67931 8.69574,-4.42345 11.6508,-16.84078 6.20254,-24.85985 -2.3557,-3.8002 -6.5156,-6.55555 -11.07271,-6.53467 -14.42587,-0.72444 -28.88103,-0.40053 -43.3198,-0.49897 -4.13634,0.0902 -8.33288,-0.18615 -12.43518,0.12908 z"
                id="path15"
                transform="matrix(0.26458333,0,0,0.26458333,-29.999704,8.2200296)"/>
        <path
                style="fill:#ffffff;stroke:none;stroke-width:0.342552;stroke-linecap:round"
                d="m 484.84641,255.45814 c -10.96153,0.32406 -22.05562,-0.30411 -32.9123,1.47477 -5.25432,1.49902 -8.69836,6.80071 -10.03952,11.85168 -2.2338,8.69339 3.81091,18.72756 12.92502,19.84773 16.83421,1.59831 33.8593,1.26851 50.67096,-0.45628 6.6411,-0.54366 12.32541,-6.1903 13.51926,-12.63026 0.76132,-5.0478 0.43678,-10.74826 -3.48286,-14.50301 -2.78075,-3.66085 -7.30873,-5.04884 -11.73412,-5.12777 -6.30141,-0.48392 -12.63059,-0.45941 -18.94644,-0.45686 z"
                id="path16"
                transform="matrix(0.26458333,0,0,0.26458333,-29.999704,8.2200296)"/>
        <path
                style="fill:#ffffff;stroke:none;stroke-width:0.0856379;stroke-linecap:round"
                d="m 146.0067,300.67444 c -3.43961,0.007 -7.09366,0.53313 -9.87013,2.72818 -2.11745,1.51282 -4.31226,3.27 -5.14375,5.84398 -1.03561,3.12421 -1.23996,6.46038 -1.31604,9.72935 -0.14449,16.48491 -0.21741,32.97122 -0.14798,49.45664 -0.13091,1.5597 1.11591,2.73839 1.87357,3.96601 1.81488,2.64346 4.22191,4.92565 7.1729,6.2434 5.14647,2.44134 11.42607,2.06344 16.39593,-0.63177 2.96146,-1.5896 4.4339,-4.83328 5.57912,-7.82915 1.32758,-3.69992 2.16699,-7.56903 2.70505,-11.45702 0.32803,-5.19318 0.13391,-10.40373 0.18843,-15.60412 -0.0225,-6.756 0.0374,-13.51742 -0.0346,-20.27003 -0.91303,-5.53582 -1.90846,-11.20908 -4.57296,-16.21343 -1.12953,-2.15435 -2.92399,-4.02652 -5.25829,-4.83876 -2.40491,-0.91568 -5.01789,-1.13279 -7.57121,-1.12328 z"
                id="path17"
                transform="matrix(0.26458333,0,0,0.26458333,-29.999704,8.2200296)"/>
        <path
                style="fill:#ffffff;stroke:none;stroke-width:0.342552;stroke-linecap:round"
                d="m 144.58474,410.53352 c -5.60242,0.48161 -10.86966,4.33538 -13.50614,9.24144 -2.58071,10.06566 -1.62872,20.63474 -1.94597,30.92619 0.2884,9.50898 -0.58775,19.23789 1.58851,28.57402 1.98262,5.38844 7.15034,9.54487 12.67461,10.85575 6.07728,0.33895 12.74064,-2.14185 16.41075,-7.13872 3.63374,-5.90303 2.76902,-13.25772 3.28373,-19.88575 0.22652,-13.3874 -0.20934,-26.79664 -0.63909,-40.16307 -2.26479,-6.02588 -7.21892,-11.54845 -13.94579,-12.19385 -1.29826,-0.17463 -2.61188,-0.21808 -3.92061,-0.21601 z"
                id="path18"
                transform="matrix(0.26458333,0,0,0.26458333,-29.999704,8.2200296)"/>
        <path
                style="fill:#ffffff;stroke:none;stroke-width:0.342552;stroke-linecap:round"
                d="m 145.39428,520.39093 c -6.21173,-0.16383 -11.93651,4.17227 -14.57469,9.58552 -2.24025,8.28617 -1.65132,17.05238 -1.8856,25.56139 0.26801,11.54103 0.0216,23.22941 2.08918,34.61933 2.76794,6.26039 9.79471,10.0128 16.55794,9.32555 5.54208,-0.0952 10.93333,-3.63877 13.50518,-8.47873 2.47079,-7.43079 1.4435,-15.48332 1.82885,-23.18432 -0.21865,-11.80197 0.59162,-23.68393 -0.73628,-35.43166 -0.92904,-4.8725 -5.13633,-8.50009 -9.26641,-10.83103 -2.34319,-1.07794 -4.97768,-1.22725 -7.51817,-1.16605 z"
                id="path19"
                transform="matrix(0.26458333,0,0,0.26458333,-29.999704,8.2200296)"/>
        <path
                style="fill:#ffffff;stroke:none;stroke-width:0.342552;stroke-linecap:round"
                d="m 145.00241,630.29039 c -7.91905,-0.14659 -15.0267,6.82031 -15.24182,14.71124 -1.4548,16.24662 -0.52796,32.62049 0.64705,48.85773 0.31001,3.87177 0.54404,8.32021 4.06589,10.76877 4.18594,3.96025 10.15592,6.10138 15.84183,4.48385 5.21804,-1.30316 10.19887,-5.40941 11.58812,-10.71267 1.42823,-15.9989 1.46421,-32.11682 1.09693,-48.16792 -0.3101,-5.42382 -0.48803,-11.8263 -5.34442,-15.35325 -3.3682,-3.22809 -8.03387,-4.74613 -12.65358,-4.58775 z"
                id="path20"
                transform="matrix(0.26458333,0,0,0.26458333,-29.999704,8.2200296)"/>
        <path
                style="fill:#ffffff;stroke:none;stroke-width:0.342552;stroke-linecap:round"
                d="m 144.89823,739.84195 c -7.54192,0.005 -15.1564,6.36978 -14.86716,14.24687 -1.51495,25.78695 -1.05717,51.65572 -0.37586,77.46504 0.2091,11.33033 1.02848,23.07818 6.48504,33.27027 8.30049,16.52926 24.9687,28.57672 43.39392,30.80169 11.20188,1.43874 22.55974,0.52539 33.81892,0.44151 6.59274,-0.10445 14.44061,-0.31766 18.80981,-6.1038 4.46596,-4.78217 4.76607,-12.39293 2.28623,-18.17417 -2.87082,-4.66977 -8.41583,-7.03741 -13.53481,-8.36117 -14.16265,-2.55775 -29.75243,0.29845 -42.55995,-7.50479 -7.23166,-4.44491 -11.69156,-12.27106 -14.52,-19.98438 -0.49245,-26.99216 -0.12724,-54.02248 -1.69864,-80.9814 0.0529,-8.83517 -8.76297,-15.6665 -17.2375,-15.11567 z"
                id="path21"
                transform="matrix(0.26458333,0,0,0.26458333,-29.999704,8.2200296)"/>
        <path
                style="fill:#ffffff;stroke:none;stroke-width:0.342552;stroke-linecap:round"
                d="m 316.82881,862.23347 c -15.27628,0.11102 -30.57545,0.26126 -45.83159,0.76844 -6.64366,2.26422 -11.94506,8.74964 -11.39482,15.96727 -0.48952,7.44906 4.36446,15.47742 12.01799,16.82556 9.87899,1.09699 19.88623,0.32318 29.81363,0.47283 10.1811,-0.33775 20.45547,0.24309 30.56971,-1.09504 8.32693,-1.79859 13.95528,-11.00006 12.28656,-19.28192 -1.07685,-6.79082 -7.42367,-11.36181 -13.29873,-13.70334 -4.72092,0.0154 -9.44184,0.0308 -14.16275,0.0462 z"
                id="path22"
                transform="matrix(0.26458333,0,0,0.26458333,-29.999704,8.2200296)"/>
        <path
                style="fill:#ffffff;stroke:none;stroke-width:0.342552;stroke-linecap:round"
                d="m 412.49001,862.28508 c -10.34796,0.26868 -20.85255,0.0201 -31.0342,2.09698 -5.85044,3.24379 -10.20631,9.9718 -9.20416,16.85137 0.68862,7.40297 7.03191,13.80029 14.5594,14.06526 17.19585,1.61678 34.52504,1.46045 51.77844,1.09168 6.06004,-0.13173 13.09615,-0.25228 17.29295,-5.39078 5.14193,-5.40354 6.28834,-14.29354 2.42099,-20.69838 -2.48695,-4.19424 -6.92673,-6.94975 -11.82778,-7.11483 -11.28425,-1.01643 -22.6654,-0.829 -33.98564,-0.9013 z"
                id="path23"
                transform="matrix(0.26458333,0,0,0.26458333,-29.999704,8.2200296)"/>
        <path
                style="fill:#ffffff;stroke:none;stroke-width:0.342552;stroke-linecap:round"
                d="m 539.88885,862.21626 c -13.51355,0.28345 -27.15178,-0.0482 -40.54038,2.0167 -8.3542,2.30166 -12.56903,12.66587 -9.60655,20.52825 2.12346,6.35981 8.18494,11.25358 15.00958,11.2849 21.05079,0.62186 42.13606,0.3218 63.18569,-0.30107 4.85216,-0.48916 10.49858,-0.40944 13.898,-4.53804 7.00615,-6.3797 6.80132,-18.99298 -0.78087,-24.85221 -4.37491,-4.37463 -11.08663,-3.12727 -16.66212,-3.77961 -8.16304,-0.3214 -16.33468,-0.3859 -24.50335,-0.35892 z"
                id="path24"
                transform="matrix(0.26458333,0,0,0.26458333,-29.999704,8.2200296)"/>
        <path
                style="fill:#ffffff;stroke:none;stroke-width:0.342552;stroke-linecap:round"
                d="m 571.06259,255.51166 c -7.34274,0.34853 -15.62706,1.29589 -21.07878,6.74208 -4.03817,4.93266 -4.18842,12.37602 -0.27144,17.42483 6.07949,8.87967 17.85128,11.50715 27.98176,10.02897 7.53808,-0.66435 16.03476,-4.60654 18.52269,-12.27696 1.10895,-5.00438 1.50644,-11.28509 -2.96292,-14.84136 -5.90476,-5.6842 -14.27833,-7.23258 -22.19131,-7.07756 z"
                id="path25"
                transform="matrix(0.26458333,0,0,0.26458333,-29.999704,8.2200296)"/>
        <path
                style="fill:#ffffff;stroke:none;stroke-width:0.342552;stroke-linecap:round"
                d="m 790.89114,444.95309 c -7.7088,-0.34083 -15.18816,6.06476 -15.47026,13.89227 -1.52641,17.26271 -2.1004,34.71935 -0.41098,51.99063 0.8986,6.48385 7.17025,10.99971 13.1869,12.43088 7.38806,1.7801 14.34902,-3.06455 18.428,-8.85836 2.42246,-2.49329 0.6083,-6.43553 1.13981,-9.55464 -0.13939,-16.3716 -0.0642,-32.76863 -0.33751,-49.12436 -2.49064,-6.67871 -9.40752,-11.21302 -16.53596,-10.77642 z"
                id="path26"
                transform="matrix(0.26458333,0,0,0.26458333,-29.999704,8.2200296)"/>
        <path
                style="fill:#ffd42a;stroke:none;stroke-width:0.342552;stroke-linecap:round"
                d="m 790.33966,553.16656 c -6.36721,0.25235 -12.80617,4.71683 -14.72571,10.8892 -1.83958,11.74007 -0.99862,23.71808 -1.18326,35.55886 0.10773,7.89435 9.6e-4,15.81451 0.24182,23.69284 2.54494,7.50212 10.20504,12.57846 18.07667,12.14606 6.29251,-0.17288 12.19885,-4.72799 13.54284,-10.96843 2.42624,-7.49049 1.19564,-15.55867 1.70991,-23.29327 -0.13658,-11.23856 0.9187,-22.56946 -0.47065,-33.75259 -0.98528,-6.2226 -5.09658,-12.10298 -11.36996,-13.82919 -1.88679,-0.54477 -3.88078,-0.44522 -5.82166,-0.44348 z"
                id="path27"
                transform="matrix(0.26458333,0,0,0.26458333,-29.999704,8.2200296)"/>
        <path
                style="fill:#ffd42a;stroke:none;stroke-width:0.484441;stroke-linecap:round"
                d="m 889.2539,613.47245 c -11.27845,0.40124 -18.75606,10.31588 -26.23641,17.48341 -62.34765,67.7998 -124.8735,135.43992 -187.16261,203.29849 -12.61646,14.01856 -26.27584,27.17582 -37.97789,41.9883 -2.4795,3.61807 -4.8465,8.86851 -1.39223,12.68685 11.286,13.6668 24.93317,25.18158 37.34484,37.79922 17.12757,16.40251 33.68537,33.44199 51.40226,49.20693 3.45499,3.01098 7.32438,-1.40097 10.08758,-3.34001 12.67673,-12.09195 23.84009,-25.70116 35.86541,-38.43765 57.88015,-63.8885 115.90149,-127.65053 174.26033,-191.09935 9.07119,-10.46489 19.22351,-20.07307 27.49649,-31.18946 5.11383,-7.86722 5.09676,-18.9281 -0.95563,-26.31176 -12.31002,-16.32435 -27.92464,-29.77649 -42.29938,-44.21599 -10.39859,-9.44363 -20.06115,-20.45873 -32.98231,-26.49703 -2.36229,-0.93853 -4.90356,-1.4537 -7.45045,-1.37195 z"
                id="path28"
                transform="matrix(0.26458333,0,0,0.26458333,-29.999704,8.2200296)"/>
        <path
                style="fill:#ffffff;stroke:none;stroke-width:0.171276;stroke-linecap:round"
                d="m 791.38719,552.56155 c -3.52727,-0.0354 -7.07839,0.87655 -9.92077,3.02213 -3.35122,2.3556 -6.2825,5.75886 -6.70256,9.98862 -1.30656,8.19589 -0.73774,16.53189 -0.93394,24.79467 0.0394,11.03551 -0.12467,22.08173 0.29492,33.10967 1.5871,5.19664 5.95236,9.28581 10.90068,11.33555 6.1241,2.45524 13.96143,1.48241 18.43031,-3.67832 4.24042,-4.97178 4.92157,-11.8734 4.99669,-18.15345 0.19413,-13.32973 0.66676,-26.66871 0.25395,-39.99783 -0.1301,-5.76518 -1.42508,-11.97791 -5.83796,-16.04787 -2.96938,-3.09854 -7.17928,-4.77805 -11.48132,-4.37317 z"
                id="path29"
                transform="matrix(0.26458333,0,0,0.26458333,-29.999704,8.2200296)"/></g></svg>
